<svg xmlns="http://www.w3.org/2000/svg" xmlns:xlink="http://www.w3.org/1999/xlink" height="16" viewBox="0 0 16 16" width="16"><title>Template icons dark</title><defs><linearGradient id="a"><stop offset="0" stop-color="#4ba8dc"/><stop offset="1" stop-color="#32b69b"/></linearGradient><radialGradient xlink:href="#a" id="b" cx="15.714" cy="18.264" fx="15.714" fy="18.264" r="21.545" gradientUnits="userSpaceOnUse" gradientTransform="matrix(1.44363 0 0 1.40984 -6.612 -7.471)"/></defs><path d="M-56-64a8 8 0 1 0-16 0 8 8 0 0 0 16 0" style="font-variant-east_asian:normal" fill="url(#b)" stroke-width=".027" transform="translate(72 72)"/><path d="M7.805.112l-1.43.032-1.269.358.91.13.748-.13.13.357.163.357-.293.293.065.586.455.13.293-.684.553-.096.618-.423-.489-.78zm-3.22.683l-1.17.454L1.53 2.615.75 3.947.133 4.955l.032 2.406.26-.13.066-1.106.227 1.723.066.04.583.35.554.423.39.52.766-.092-.117.125.163.65-.39.357.097.458.033.16.716 1.235.422.066.358.324.26 1.269.162.682.585.91.91.52-.39-.617-.13-.65.489-.586.39-1.04.617-.097.39-1.268.488-.456-.423-.584-1.496-.293-.033-.121-.162-.595-.715-.032-.455-.552-.584-.033-.782-.26-.382.407-.56-.341-.162-.52-.553-.196.118-.4.045-.152-.352.24-.168.117-.072-.054-.189-.14.033-1.107.845-.39.39.066.097.747.39-.065.099-1.235.649-.195v-.586l.748-.584.813-.033-.292-.618 1.105-.39-.683-.878-.422.195-.13-.617-.424.13-.617 1.236-.227-.489-.424-.39.943-.65s.65-.227.78-.227.39.292.39.292l.521-.39-.162-.455-.65.065zm7.023.292l-.716.097.228 1.236.52.064.52.423v-.455l-.455-.682.91.584.033.748-.812.097-.358.683.358.618-.845-.098.162.975.487.228.586-.553.097-.715.39.098.423.422-.293.423.247.066.241.064.163-.487.26.487.325-.358.26.553.487.13-.032.618-.715-.293-.163.195-.878-.325-.16-.296-.067-.126-1.3.293-1.009 1.495.064.64.067.66.975.942 1.008-.162.487.553-.292.877.227 1.073-.65.91-.586 1.398.878-.162 1.399-1.333.683-1.268.454-1.3.52-.586-.422-.422-.39-2.308.455.878v1.137l.423-.487-.13-1.593-.326-.91-.325-1.267-.828-1.186-.213-.303-.584-.918-1.17-.585z" fill="#fff" fill-opacity=".896" stroke-width=".01"/></svg>