<svg xmlns="http://www.w3.org/2000/svg" xmlns:xlink="http://www.w3.org/1999/xlink" height="48" viewBox="0 0 48 48" width="48" enable-background="new"><title>Template icons dark</title><defs><filter id="f" x="-.439" width="1.878" y="-.17" height="1.339" color-interpolation-filters="sRGB"><feGaussianBlur stdDeviation=".235"/></filter><filter id="e" x="-.439" width="1.878" y="-.17" height="1.339" color-interpolation-filters="sRGB"><feGaussianBlur stdDeviation=".235"/></filter><linearGradient id="a"><stop offset="0" stop-color="#36549f"/><stop offset="1" stop-color="#1b2b5e"/></linearGradient><linearGradient id="b"><stop offset="0" stop-color="#915faf"/><stop offset="1" stop-color="#492f75"/></linearGradient><linearGradient xlink:href="#a" id="d" gradientUnits="userSpaceOnUse" x1="14.054" y1="22.893" x2="-10.695" y2="47.641" gradientTransform="rotate(-45 -12.685 7.202) scale(1.29273)"/><linearGradient xlink:href="#b" id="c" x1="13.789" y1="22.097" x2="-11.402" y2="47.288" gradientUnits="userSpaceOnUse" gradientTransform="matrix(1.29273 0 0 1.29273 -1.378 -11.079)"/></defs><g><rect transform="rotate(-45)" ry="0" y="16.973" x="-16.973" height="33.934" width="33.934" fill="url(#c)" stroke-width="12.927"/><path d="M23.995.009L47.99 24.004 23.995 47.999V32.79l5.656-1.474 1.454-4.382-5.332-3.252 4.282-1.798-.97-4.544-5.09-.747z" fill="url(#d)" stroke-width="12.927"/><path d="M47.99 24.004L23.995.009 0 24.004l1.823 1.833L23.995 3.665l22.167 22.167z" style="line-height:normal;text-indent:0;text-align:start;text-decoration-line:none;text-decoration-style:solid;text-decoration-color:#000;text-transform:none;isolation:auto;mix-blend-mode:normal" color="#000" font-weight="400" font-family="sans-serif" white-space="normal" overflow="visible" fill="#fff" fill-opacity=".114" stroke-width="2.585" stroke-linecap="square" enable-background="accumulate"/><path d="M24.244.008L13.15 11.102v25.804L24.244 48 35.34 36.906V11.102z" fill="#fff" fill-opacity=".092" stroke-width="10.174"/><g style="line-height:0%;-inkscape-font-specification:Verdana"><path d="M23.398 32.746q.666.597 1.097 1.5.43.902.43 2.332 0 1.416-.513 2.596-.514 1.18-1.444 2.055-1.042.972-2.458 1.444-1.402.459-3.083.459-1.721 0-3.387-.417-1.667-.403-2.736-.889v-2.901h.209q1.18.777 2.776 1.29 1.597.515 3.083.515.875 0 1.86-.292.986-.292 1.597-.86.639-.612.944-1.348.32-.736.32-1.86 0-1.111-.361-1.833-.347-.736-.972-1.153-.625-.43-1.514-.583-.888-.166-1.916-.166h-1.25V30.33h.973q2.11 0 3.36-.875 1.263-.889 1.263-2.583 0-.75-.32-1.305-.318-.569-.888-.93-.597-.361-1.277-.5-.68-.139-1.541-.139-1.32 0-2.805.472-1.486.472-2.805 1.333h-.139v-2.902q.986-.486 2.625-.888 1.652-.417 3.193-.417 1.514 0 2.666.278t2.083.889q1 .666 1.513 1.61.514.944.514 2.208 0 1.722-1.222 3.013-1.208 1.277-2.86 1.61v.195q.666.111 1.527.472.86.347 1.458.875z" style="line-height:13.43226147;-inkscape-font-specification:Verdana" font-size="28.436" transform="scale(1.33127 .75116)" font-weight="400" font-family="Verdana" letter-spacing="0" word-spacing="0" fill="#fff" stroke="#6c409a" stroke-width=".54"/></g><g transform="matrix(.7603 0 0 .45661 -18.565 -5.115)" opacity=".99" fill="#fff" fill-opacity=".439" stroke-width=".531" stroke-linecap="square" stroke-opacity=".616"><ellipse transform="matrix(.37034 0 0 .93213 35.102 1.504)" ry="1.659" rx=".641" cy="19.942" cx="55.927" filter="url(#e)"/><ellipse cx="55.927" cy="19.942" rx=".641" ry="1.659" transform="matrix(0 .28572 -1.76513 0 91.014 4.106)" filter="url(#e)"/></g><g transform="matrix(.45515 .38802 -.24501 .2874 10.994 -9.411)" opacity=".99" fill="#fff" fill-opacity=".439" stroke-width=".531" stroke-linecap="square" stroke-opacity=".616"><ellipse cx="55.927" cy="19.942" rx=".641" ry="1.659" transform="matrix(.37034 0 0 .93213 35.102 1.504)" filter="url(#f)"/><ellipse transform="matrix(0 .28572 -1.76513 0 91.014 4.106)" ry="1.659" rx=".641" cy="19.942" cx="55.927" filter="url(#f)"/></g><g style="line-height:0%" font-weight="400" font-family="sans-serif" letter-spacing="0" word-spacing="0" fill="#ddd" fill-opacity=".562" stroke-width=".056" stroke-opacity=".265" font-size="3.461"><path d="M32.108 43.474l.21.21q-.196.1-.379.235-.183.135-.354.305-.26.26-.34.442-.078.18.023.281.078.078.215.03.137-.05.457-.29l.137-.103q.422-.321.671-.384.25-.065.415.1.189.19.063.534-.123.344-.532.753-.171.171-.379.335-.204.164-.451.326l-.23-.23q.257-.13.478-.284.219-.156.403-.34.247-.247.326-.433.078-.187-.02-.285-.09-.09-.235-.042-.144.046-.513.326l-.14.103q-.367.28-.6.335-.235.054-.393-.104-.19-.19-.082-.507.108-.316.499-.707.193-.193.382-.346.189-.153.37-.26zM32.7 42.033l.385.384.719-.719.173.173-.72.72.736.734q.166.166.283.143.12-.025.337-.243l.359-.358.186.186-.358.358q-.404.404-.653.462-.25.057-.505-.197l-.735-.735-.256.256-.173-.173.256-.256-.384-.385zM35.703 40.215q-.08.037-.16.097-.08.058-.163.141-.295.296-.331.579-.036.28.194.509l.714.713-.351.351-1.355-1.354.351-.351.21.21q-.013-.233.104-.469.116-.236.368-.489.037-.036.084-.076.046-.04.105-.088zM38.22 38.525l.109.109-1.604 1.604q.252.207.566.135.316-.076.663-.423.2-.2.357-.42.158-.221.281-.47l.21.21q-.136.239-.307.463-.17.224-.374.427-.508.508-.994.617-.485.107-.806-.214-.333-.333-.247-.808.087-.479.565-.957.428-.428.853-.5.426-.075.728.227zm-.414.284q-.186-.18-.453-.13-.264.046-.522.304-.292.292-.363.574-.07.28.095.497zM40.085 35.937q-.019-.28.092-.534.11-.254.357-.5.332-.332.66-.363.328-.033.602.24l.817.818-.35.35-.81-.81q-.196-.194-.398-.18-.202.013-.424.235-.271.271-.314.544-.043.272.156.47l.765.766-.35.35-.81-.81q-.197-.196-.398-.18-.202.013-.428.239-.267.267-.309.54-.042.273.155.47l.765.766-.35.35-1.355-1.354.35-.35.211.21q-.005-.244.103-.47.108-.227.337-.456.231-.232.468-.318.238-.088.458-.023zM41.957 33.545l.349-.349 1.354 1.355-.349.349zm-.527-.527l.348-.349.282.282-.349.349zM44.013 31.801q-.28.28-.303.584-.025.302.219.545.243.243.544.223.302-.025.585-.307.279-.279.301-.582.023-.304-.219-.545-.24-.241-.544-.218-.304.021-.583.3zm-.189-.189q.456-.455.904-.526.448-.071.782.263.333.332.263.782-.071.448-.527.904-.457.457-.905.528-.448.068-.78-.265-.334-.333-.265-.78.071-.448.528-.906z" style="line-height:10"/></g></g></svg>