<svg xmlns="http://www.w3.org/2000/svg" xmlns:xlink="http://www.w3.org/1999/xlink" height="128" viewBox="0 0 128 128" width="128" enable-background="new"><title>Template icons dark</title><defs><filter id="f" x="-.439" width="1.878" y="-.17" height="1.339" color-interpolation-filters="sRGB"><feGaussianBlur stdDeviation=".235"/></filter><filter id="e" x="-.439" width="1.878" y="-.17" height="1.339" color-interpolation-filters="sRGB"><feGaussianBlur stdDeviation=".235"/></filter><linearGradient id="a"><stop offset="0" stop-color="#36549f"/><stop offset="1" stop-color="#1b2b5e"/></linearGradient><linearGradient id="b"><stop offset="0" stop-color="#915faf"/><stop offset="1" stop-color="#492f75"/></linearGradient><linearGradient xlink:href="#a" id="d" gradientUnits="userSpaceOnUse" x1="14.054" y1="22.893" x2="-10.695" y2="47.641" gradientTransform="rotate(-45 321.222 -127.883) scale(3.44785)"/><linearGradient xlink:href="#b" id="c" x1="13.789" y1="22.097" x2="-11.402" y2="47.288" gradientUnits="userSpaceOnUse" gradientTransform="translate(-3.657 264.595) scale(3.44785)"/></defs><g transform="translate(-208 -208)"><rect transform="rotate(-45)" ry="0" y="339.413" x="-45.253" height="90.506" width="90.506" fill="url(#c)" stroke-width="34.479"/><path d="M272 208.003L335.997 272 272 335.997v-40.565l15.084-3.932 3.88-11.69-14.223-8.672 11.42-4.794-2.585-12.12L272 252.23z" fill="url(#d)" stroke-width="34.479"/><path d="M335.997 272L272 208.003 208.003 272l4.862 4.89L272 217.754l59.121 59.121z" style="line-height:normal;text-indent:0;text-align:start;text-decoration-line:none;text-decoration-style:solid;text-decoration-color:#000;text-transform:none;isolation:auto;mix-blend-mode:normal" color="#000" font-weight="400" font-family="sans-serif" white-space="normal" overflow="visible" fill="#fff" fill-opacity=".114" stroke-width="6.896" stroke-linecap="square" enable-background="accumulate"/><path d="M272.665 208l-29.59 29.59v68.82l29.59 29.59 29.59-29.59v-68.82z" fill="#fff" fill-opacity=".092" stroke-width="27.135"/><g style="line-height:0%;-inkscape-font-specification:Verdana"><path d="M218.649 364.212q1.777 1.593 2.925 4t1.148 6.221q0 3.778-1.37 6.925-1.37 3.148-3.851 5.481-2.778 2.593-6.555 3.852-3.74 1.222-8.221 1.222-4.592 0-9.036-1.111-4.444-1.074-7.296-2.37v-7.74h.556q3.148 2.074 7.406 3.444 4.26 1.37 8.222 1.37 2.333 0 4.962-.778 2.63-.777 4.259-2.296 1.703-1.63 2.518-3.592.852-1.962.852-4.962 0-2.963-.963-4.888-.926-1.963-2.593-3.074-1.666-1.148-4.036-1.555-2.37-.445-5.11-.445h-3.333v-6.147h2.592q5.629 0 8.962-2.333 3.37-2.37 3.37-6.888 0-2-.852-3.481-.852-1.519-2.37-2.482-1.593-.962-3.407-1.333-1.815-.37-4.11-.37-3.519 0-7.481 1.259-3.963 1.26-7.48 3.555h-.371v-7.74q2.629-1.296 6.999-2.37 4.407-1.11 8.517-1.11 4.037 0 7.11.74 3.074.74 5.555 2.37 2.667 1.778 4.037 4.296 1.37 2.518 1.37 5.888 0 4.592-3.259 8.036-3.221 3.407-7.628 4.296v.518q1.777.297 4.073 1.26 2.296.925 3.889 2.332z" style="line-height:13.43226147;-inkscape-font-specification:Verdana" font-size="75.843" transform="scale(1.33127 .75116)" font-weight="400" font-family="Verdana" letter-spacing="0" word-spacing="0" fill="#fff" stroke="#6c409a" stroke-width="1.44"/></g><g transform="matrix(2.02782 0 0 1.21784 158.488 194.335)" opacity=".99" fill="#fff" fill-opacity=".439" stroke-width=".531" stroke-linecap="square" stroke-opacity=".616"><ellipse transform="matrix(.37034 0 0 .93213 35.102 1.504)" ry="1.659" rx=".641" cy="19.942" cx="55.927" filter="url(#e)"/><ellipse cx="55.927" cy="19.942" rx=".641" ry="1.659" transform="matrix(0 .28572 -1.76513 0 91.014 4.106)" filter="url(#e)"/></g><g transform="matrix(1.21393 1.0349 -.65348 .76653 237.324 182.878)" opacity=".99" fill="#fff" fill-opacity=".439" stroke-width=".531" stroke-linecap="square" stroke-opacity=".616"><ellipse cx="55.927" cy="19.942" rx=".641" ry="1.659" transform="matrix(.37034 0 0 .93213 35.102 1.504)" filter="url(#f)"/><ellipse transform="matrix(0 .28572 -1.76513 0 91.014 4.106)" ry="1.659" rx=".641" cy="19.942" cx="55.927" filter="url(#f)"/></g><g style="line-height:0%" font-weight="400" font-family="sans-serif" letter-spacing="0" word-spacing="0" fill="#ddd" fill-opacity=".562" stroke-width=".056" stroke-opacity=".265" font-size="3.461"><path d="M293.64 323.927l.56.562q-.523.265-1.013.626-.489.36-.944.815-.693.693-.907 1.178-.208.48.063.75.206.206.573.078.364-.132 1.22-.774l.363-.274q1.127-.855 1.79-1.022.665-.175 1.107.267.503.503.17 1.424-.33.916-1.422 2.008-.455.455-1.009.893-.545.436-1.204.87l-.613-.613q.687-.345 1.274-.76.585-.416 1.076-.907.657-.657.87-1.153.208-.5-.053-.76-.242-.243-.629-.114-.382.124-1.366.87l-.372.275q-.981.75-1.604.895-.627.142-1.046-.277-.51-.51-.22-1.353.289-.844 1.33-1.886.517-.516 1.02-.923.504-.407.985-.695zM295.218 320.084l1.026 1.026 1.917-1.917.461.461-1.917 1.917 1.961 1.961q.442.442.755.38.318-.066.9-.648l.956-.956.496.497-.956.956q-1.077 1.077-1.742 1.232-.667.152-1.345-.525l-1.96-1.961-.683.683-.462-.462.683-.682-1.025-1.026zM303.228 315.236q-.215.098-.428.26-.211.153-.434.375-.789.79-.885 1.543-.094.746.519 1.359l1.903 1.903-.936.935-3.612-3.612.935-.936.562.562q-.036-.623.276-1.251.31-.632.982-1.305.096-.096.222-.202.123-.11.281-.236zM309.94 310.73l.29.29-4.279 4.279q.674.552 1.512.358.84-.201 1.766-1.127.536-.536.953-1.12.422-.59.75-1.254l.561.561q-.365.637-.82 1.234-.455.597-.996 1.138-1.356 1.355-2.653 1.646-1.293.286-2.15-.572-.887-.886-.658-2.154.231-1.276 1.506-2.551 1.143-1.143 2.276-1.335 1.136-.2 1.942.606zm-1.105.756q-.497-.477-1.207-.348-.705.125-1.393.813-.779.779-.969 1.53-.184.746.254 1.326zM314.914 303.827q-.05-.75.244-1.425.296-.676.953-1.334.885-.885 1.763-.969.874-.087 1.603.642l2.18 2.18-.936.936-2.16-2.16q-.52-.52-1.06-.483-.54.037-1.132.628-.723.724-.836 1.45-.114.726.415 1.255l2.042 2.042-.936.935-2.161-2.16q-.523-.523-1.06-.483-.54.037-1.141.639-.713.713-.823 1.442-.114.727.412 1.252l2.041 2.042-.935.936-3.613-3.613.936-.935.561.56q-.013-.65.274-1.253.287-.603.9-1.215.616-.617 1.246-.847.635-.235 1.223-.062zM319.906 297.448l.93-.93 3.613 3.611-.93.931zm-1.406-1.406l.93-.93.752.75-.93.931zM325.39 292.796q-.748.748-.81 1.557-.063.806.585 1.455.648.648 1.452.592.806-.064 1.56-.818.743-.743.804-1.552.061-.81-.584-1.455-.642-.641-1.45-.58-.813.057-1.557.8zm-.503-.503q1.214-1.214 2.41-1.404 1.196-.19 2.086.7.887.887.7 2.086-.19 1.196-1.403 2.41-1.22 1.22-2.415 1.41-1.194.18-2.081-.706-.89-.89-.706-2.081.19-1.196 1.41-2.415z" style="line-height:10"/></g></g></svg>