<svg xmlns="http://www.w3.org/2000/svg" width="256" height="256" viewBox="0 0 67.733331 67.733331"><g stroke-width=".066"><path d="M17.721 57.253a4.856 4.856 0 0 1-3.557-2.762c-.327-.721-.425-1.198-.43-2.109-.006-.778-.017-.848-.186-1.13-.236-.395-.4-1.048-.408-1.624-.006-.534.178-.996.593-1.48.448-.523 1.23-.926 1.83-.943.322-.01 1.203.204 1.521.368.183.095.29.098.918.026.613-.07.8-.066 1.359.029 1.33.224 2.567.955 2.936 1.735.218.461.21.902-.025 1.365-.251.496-.6.688-1.244.686-.516-.002-.72-.082-1.264-.498-.477-.363-.79-.48-1.29-.482a1.988 1.988 0 0 0-1.8 1.128c-.124.253-.158.43-.158.82 0 .655.23 1.15.709 1.53.313.247.508.323 1.348.52.465.11.9.395 1.076.706.416.735-.077 1.924-.892 2.15-.307.086-.382.083-1.036-.035zm31.452.012c-.789-.29-1.223-1.415-.82-2.127.176-.31.61-.596 1.076-.705.84-.198 1.036-.274 1.348-.521.48-.38.71-.875.71-1.53 0-.39-.035-.567-.16-.82a1.988 1.988 0 0 0-1.798-1.128c-.501.002-.814.12-1.29.482-.546.416-.75.496-1.265.498-.645.002-.993-.19-1.244-.686-.235-.463-.242-.904-.024-1.365.368-.78 1.605-1.51 2.937-1.736.554-.093.75-.098 1.32-.032.624.073.692.069.972-.055.376-.166 1.142-.344 1.441-.335.492.015 1.178.321 1.622.725.42.381.822 1.163.846 1.642.015.315-.198 1.162-.39 1.55-.168.338-.18.426-.185 1.227-.005 1-.104 1.452-.493 2.256-.744 1.541-2.195 2.53-3.982 2.716a1.416 1.416 0 0 1-.621-.056zm-16.658-3.656c-1.104-.18-2.48-.643-3.303-1.112a24.536 24.536 0 0 1-2.378-1.622c-.646-.523-1.747-1.662-2.136-2.209-.415-.584-.812-1.343-.956-1.825-.105-.35-.2-.483-.787-1.095-1.196-1.249-1.91-2.144-2.687-3.372-1.238-1.954-2.131-4.06-2.724-6.417-.145-.576-.276-1.06-.291-1.075a12.658 12.658 0 0 0-.482-.331l-.71-.476c-.538-.364-1.133-1.36-1.37-2.291-.17-.675-.186-1.895-.027-2.196.058-.11.177-.39.265-.622.345-.912.975-1.715 1.749-2.229.248-.165.48-.337.514-.383.034-.046.116-.323.182-.615.376-1.676 1.198-3.863 2.228-5.93 2.174-4.36 5.361-8.66 10.036-13.538 1.176-1.227 4.297-4.252 4.389-4.254.19-.004 2.435 1.994 3.989 3.55C44.38 11.937 48.977 19.2 50.557 25.382c.137.534.267.998.29 1.03.023.034.237.198.475.366.774.547 1.237 1.149 1.73 2.254.267.596.28.654.309 1.432.027.733.013.87-.146 1.427a5.863 5.863 0 0 1-.4 1.015c-.245.44-.743 1.094-.832 1.094-.13 0-1.13.818-1.161.95-.51 2.15-.923 3.43-1.557 4.83a19.7 19.7 0 0 1-4.19 6.031c-.763.759-.919.948-1.012 1.231-.46 1.403-2.182 3.339-4.063 4.57-.361.235-.752.506-.868.601-.49.4-2.119 1.046-3.288 1.302-.823.18-2.505.227-3.33.093z" fill="#eaf7ea"/><path d="M29.323 66.444c-3.872-.124-7.114-.432-8.14-.773-.394-.13-.511-.344-.262-.478.41-.22 1.982-.46 4.122-.631 2.645-.212 4.464-.266 8.958-.266s6.313.054 8.958.266c2.14.171 3.712.412 4.122.631.25.134.133.348-.26.478-1.9.63-10.346 1.003-17.498.773zm-11.648-9.051c-1.828-.365-3.245-1.616-3.85-3.4-.201-.593-.22-.723-.23-1.515-.01-.852-.013-.873-.248-1.343-.142-.284-.258-.631-.286-.859-.038-.302-.131-.521-.449-1.046-1.713-2.836-2.555-6.359-2.313-9.68.09-1.25.197-1.93.484-3.094a15.886 15.886 0 0 1 3.488-6.656c.244-.274.433-.56.484-.73.134-.447.435-.993.798-1.448.332-.416 1.178-1.15 1.41-1.224.064-.02.134-.117.155-.215.021-.098.158-.626.304-1.174 1.393-5.214 5.061-11.174 10.598-17.22 1.809-1.974 5.818-5.906 6.023-5.906.15 0 1.77 1.377 3.055 2.598 4.726 4.487 8.843 9.92 11.335 14.954 1.11 2.242 1.901 4.349 2.362 6.287.142.597.172.66.39.804.914.61 1.683 1.577 1.985 2.498.042.128.288.471.546.763 1.99 2.248 3.28 4.985 3.808 8.087.463 2.715.174 5.887-.774 8.503-.333.917-.992 2.28-1.468 3.032-.26.412-.378.671-.41.907-.025.182-.137.52-.25.75-.196.404-.204.456-.213 1.35-.009.86-.025.974-.222 1.548-.422 1.227-1.03 2.025-2.07 2.718-.79.525-2.295.918-2.89.753-.944-.26-1.48-1.6-.964-2.413.239-.376.63-.615 1.239-.754.993-.229 1.327-.437 1.652-1.033.503-.922.065-2.134-.92-2.546-.132-.055-.435-.098-.686-.097-.526 0-.842.125-1.347.524-.876.692-2.05.59-2.55-.22-.164-.266-.206-.413-.225-.797-.02-.416 0-.514.169-.836.295-.563 1.122-1.179 2.043-1.522a5.01 5.01 0 0 1 2.543-.267c.382.062.459.054.83-.093.225-.089.537-.182.694-.208.282-.045.287-.05.605-.687a13.761 13.761 0 0 0 1.274-4.124c.126-.894.112-2.718-.029-3.627-.133-.866-.477-2.163-.768-2.893-.349-.877-.798-1.72-.888-1.665a7.592 7.592 0 0 0-.402.301 5.686 5.686 0 0 1-.417.306c-.055.031-.165.363-.26.78-.705 3.127-2.05 6.007-3.948 8.457-.269.347-.955 1.108-1.526 1.692-.629.644-1.071 1.153-1.125 1.294-.642 1.694-2.275 3.512-4.386 4.884l-.636.413-.11.454c-.06.25-.249.736-.419 1.081-.26.53-.403.722-.913 1.228-.802.797-1.472 1.181-2.57 1.474-.58.155-1.925.155-2.505 0-1.097-.293-1.767-.677-2.57-1.474-.51-.506-.652-.697-.913-1.228-.17-.345-.358-.831-.418-1.08l-.11-.453-.736-.48c-2.142-1.399-3.758-3.256-4.34-4.988-.116-.343-.233-.498-.897-1.179-2.582-2.648-4.447-6.094-5.353-9.892-.129-.54-.23-.826-.305-.87a10.662 10.662 0 0 1-.538-.382c-.234-.173-.448-.315-.477-.315-.063 0-.73 1.399-.935 1.957-.224.615-.576 2.054-.672 2.754-.113.814-.112 2.645 0 3.45a13.742 13.742 0 0 0 1.274 4.126l.321.64.345.075c.19.04.482.134.65.209.281.125.346.13.865.056.329-.047.793-.061 1.122-.036 1.373.105 2.95.952 3.412 1.832.17.322.19.42.169.836-.019.384-.06.531-.224.796-.502.812-1.675.913-2.55.22-.506-.398-.822-.522-1.347-.523-.252-.001-.555.042-.686.097-.986.412-1.424 1.624-.92 2.546.324.596.658.804 1.652 1.032.608.14 1 .379 1.238.755.392.618.202 1.572-.421 2.105-.434.37-.81.432-1.643.266zM35.987 34.8a6.409 6.409 0 0 0 2.717-1.563c.821-.779 1.364-1.666 1.713-2.801.167-.54.18-.67.18-1.745 0-1.074-.013-1.205-.18-1.744-.666-2.165-2.274-3.74-4.465-4.375-.455-.132-.674-.152-1.652-.152-.979 0-1.198.02-1.652.152-2.192.635-3.8 2.21-4.466 4.375-.166.54-.18.67-.18 1.744 0 1.074.014 1.205.18 1.745.318 1.034.776 1.832 1.469 2.56a6.449 6.449 0 0 0 3.33 1.894c.684.153 2.347.103 3.006-.09zm-2.415-.604a5.632 5.632 0 0 1-4.593-4.228c-.153-.626-.15-1.894.008-2.504.36-1.395 1.171-2.553 2.327-3.319 1.003-.664 1.85-.92 3.052-.92 1.203 0 2.05.256 3.053.92a5.636 5.636 0 0 1 2.334 3.336c.148.602.147 1.886 0 2.49-.49 2.002-2.053 3.599-4.014 4.1-.596.153-1.615.211-2.166.125zm-1.398-6.586c.246-.518.772-.978 1.38-1.207.358-.135.376-.198.173-.617-.173-.356-.547-.64-.984-.744-.99-.237-1.975.738-1.73 1.714.105.414.297.71.588.909.322.219.449.207.573-.055z" fill="#8cd3a5"/><path d="M29.323 66.444c-3.872-.124-7.114-.432-8.14-.773-.394-.13-.511-.344-.262-.478.41-.22 1.982-.46 4.122-.631 2.645-.212 4.464-.266 8.958-.266s6.313.054 8.958.266c2.14.171 3.712.412 4.122.631.25.134.133.348-.26.478-1.9.63-10.346 1.003-17.498.773zm-11.414-9.093c-.182-.032-.387-.046-.454-.03-.068.016-.106.012-.085-.009.056-.055-.83-.353-.908-.305-.037.023-.047.01-.023-.029.052-.085-.138-.167-.244-.106-.043.024-.055.02-.028-.01.064-.072-.195-.253-.283-.199-.038.024-.06.012-.05-.024.026-.095-.418-.412-.506-.362-.04.023-.05.016-.022-.015.056-.061-.41-.573-.482-.529-.025.015-.046-.008-.047-.052-.003-.096-.593-.978-.63-.942-.013.014-.028-.025-.032-.087-.01-.15-.327-1.013-.36-.98-.034.034-.052-.278-.074-1.29-.017-.768-.032-.852-.201-1.14-.1-.17-.183-.344-.183-.385 0-.042-.027-.059-.06-.038-.033.02-.043-.027-.023-.106.021-.079.01-.127-.022-.107-.033.02-.064-.102-.068-.271-.007-.254-.075-.413-.388-.906-1.768-2.778-2.684-6.49-2.437-9.879.163-2.252.65-4.164 1.542-6.064.612-1.304 1.683-2.902 2.589-3.863.355-.377.49-.623.43-.78-.02-.05-.01-.076.019-.058.075.046.355-.55.3-.638-.026-.043-.013-.053.032-.025.07.043.108-.04.083-.181-.005-.03.018-.038.052-.017.061.038.173-.147.15-.249-.007-.03.015-.037.049-.017.055.034.301-.264.305-.37.003-.061.102-.155.164-.155.102 0 .663-.48.616-.527-.026-.026-.018-.042.018-.035.14.028.239-.005.2-.068-.022-.036 0-.05.05-.03.156.06.33-.21.34-.525.004-.162.034-.278.067-.258.033.02.044-.042.026-.138-.02-.106-.007-.158.033-.133.041.026.054-.026.034-.132-.019-.096-.01-.16.018-.142.07.043.15-.346.09-.443-.03-.047-.02-.06.023-.034.085.053.18-.316.11-.43-.033-.053-.02-.06.038-.025.065.04.078.018.05-.09-.02-.078-.015-.128.013-.111.07.043.219-.482.162-.574-.03-.049-.017-.056.04-.02.065.04.078.016.05-.09-.02-.079-.016-.13.01-.114.072.044.222-.413.167-.504-.03-.048-.019-.059.029-.03.07.045.102-.047.094-.274-.001-.045.028-.063.066-.04.044.027.056-.01.032-.1-.02-.079-.015-.13.012-.113.074.046.355-.677.299-.768-.033-.053-.02-.061.039-.025.064.04.076.024.044-.06-.024-.062-.018-.097.012-.078.073.045.284-.49.23-.578-.026-.042-.009-.047.045-.014.065.04.077.024.045-.06-.024-.062-.02-.098.009-.08.074.046.688-1.213.634-1.301-.025-.04-.015-.054.021-.032.085.053.236-.269.177-.374-.025-.043-.02-.055.01-.028.077.07.383-.462.324-.564-.026-.046-.023-.06.007-.033.073.066.314-.336.257-.429-.025-.04-.017-.055.018-.034.07.044.792-1.132.777-1.267-.006-.048.007-.07.027-.05.058.058.624-.82.578-.894-.023-.037-.001-.058.047-.048.049.01.084-.034.079-.097-.005-.064.013-.102.041-.085.058.036.554-.687.554-.807 0-.044.032-.075.072-.068.04.007.068-.039.063-.102-.005-.064.014-.101.042-.084.06.037.288-.288.288-.41 0-.045.023-.067.052-.05.069.043.2-.206.139-.267-.026-.026-.012-.037.03-.025.095.027.43-.405.38-.487-.02-.032-.006-.05.03-.04.093.025.413-.417.363-.5-.023-.036-.009-.046.032-.02.064.04.253-.205.223-.291-.006-.018.015-.033.047-.033.094 0 .998-1.184.956-1.252-.021-.035-.01-.045.025-.023.074.045 1.46-1.591 1.431-1.69-.01-.035.01-.047.044-.026.06.037.442-.39.471-.526.008-.037.04-.06.07-.052.058.016.57-.568.594-.678.008-.037.039-.06.069-.052.062.017.738-.743.732-.824-.002-.03.019-.054.046-.055.07-.002 3.767-3.705 3.75-3.758-.007-.024.03-.08.084-.124.054-.044.098-.059.098-.033 0 .027.208-.136.462-.362.255-.225.457-.43.448-.454-.008-.025.003-.045.025-.045a.352.352 0 0 0 .133-.073c.13-.101.34-.17.294-.097-.049.08.232.277.318.223.036-.022.046-.008.021.031-.053.086.315.364.39.296.03-.027.034-.014.01.028-.044.076.274.332.375.302.03-.01.038.01.018.044-.047.077.392.418.456.355.026-.026.037-.002.025.052-.012.055.017.092.066.082.048-.01.07.009.05.042-.039.062.406.437.525.443.037.001.06.036.053.075-.015.077 1.238 1.259 1.31 1.236.023-.007.203.15.4.349.196.199.332.361.303.361-.03 0 .221.298.558.663.336.364.638.645.67.625.034-.02.052-.008.042.028-.03.104.615.814.694.765.04-.024.054-.015.031.021-.058.094.347.563.44.51.043-.025.056-.021.03.007-.07.078.343.575.435.522.043-.024.056-.02.03.008-.072.079.21.443.301.39.043-.024.057-.02.03.008-.07.079.21.442.302.39.043-.025.056-.02.03.008-.068.076.21.443.296.39.039-.024.053-.014.03.022-.057.093.147.364.234.31.04-.024.054-.015.032.021-.058.093.147.365.234.311.04-.025.053-.014.03.024-.055.088.343.59.444.56.041-.012.054 0 .028.026-.072.071.076.306.16.254.04-.026.055-.016.032.021-.05.083.47.79.562.765.036-.01.05.008.03.04-.047.076.408.713.493.691.035-.009.06.006.056.034-.02.123.013.22.063.189.03-.019.056.003.056.048 0 .122.227.447.287.41.028-.018.048.02.043.083-.006.064.03.108.078.098.049-.01.073.007.054.037-.049.079.19.424.25.363.028-.028.045-.02.037.016-.028.142.006.238.07.198.038-.023.065-.017.06.013-.023.128.01.225.064.192.033-.02.055.015.05.079-.005.063.03.107.079.097.048-.01.07.012.046.048-.052.086.26.55.325.484.028-.027.044-.02.036.017-.027.135.004.239.062.204.032-.02.054 0 .05.045-.015.134.706 1.307.776 1.263.035-.022.043-.005.017.037-.056.09.159.483.237.435.03-.019.034.018.01.08-.03.077-.019.099.033.067.052-.032.063-.01.033.066-.032.084-.02.1.045.06.056-.035.072-.029.043.018-.055.089.182.498.249.43.026-.025.026.009 0 .078-.034.087-.025.11.028.078.052-.032.063-.01.034.066-.032.083-.02.1.044.06.056-.035.072-.029.044.016-.062.1.023.29.107.238.04-.024.05-.012.025.03-.06.096.43 1.079.511 1.028.036-.022.045-.007.02.031-.061.1.024.29.107.238.039-.024.051-.013.028.024-.055.09.157.623.23.579.03-.02.036.016.012.079-.032.083-.02.099.044.06.055-.035.072-.03.045.014-.057.093.086.492.16.446.033-.02.044.004.025.053-.045.12.198.66.269.597.03-.028.033-.012.006.034-.067.115.02.36.108.305.043-.026.053-.013.024.033-.056.09.095.547.166.504.026-.017.031.034.01.113-.027.107-.015.13.05.09.057-.036.071-.029.04.02-.056.093.093.618.163.574.028-.017.033.033.013.112-.024.092-.012.128.033.1.045-.028.057.007.033.1-.027.106-.015.129.05.089.06-.037.071-.028.036.028-.069.112.095.677.182.624.04-.025.048-.01.02.037-.059.093.23 1.34.3 1.297.025-.016.033.026.015.095-.037.14.28.433.394.363.038-.024.05-.012.026.027-.042.068.134.183.243.158.03-.007.038.016.017.049-.034.055.265.302.37.306.058.002.155.1.157.156.004.106.251.405.306.37.034-.02.055-.012.049.018-.023.102.089.286.15.248.034-.02.057-.013.052.017-.025.142.013.224.082.181.046-.028.059-.018.032.025-.055.09.226.685.3.639.03-.019.04.007.02.056-.04.106.124.529.199.512.066-.014.805.824 1.267 1.437 2.263 3.002 3.442 7.078 3.161 10.933-.173 2.383-.675 4.279-1.672 6.312-.25.511-.626 1.183-.835 1.493-.302.45-.38.62-.385.84-.004.151-.034.258-.067.238-.033-.02-.043.03-.021.113.022.082.023.133.003.114-.02-.02-.125.13-.233.334-.188.351-.195.395-.152.908.054.648-.087 1.572-.332 2.175-.09.223-.146.438-.122.48.023.04.018.051-.012.024-.069-.062-.316.334-.262.42.022.036.01.056-.027.046-.092-.025-.413.418-.362.5.022.037.011.048-.025.026-.086-.053-.57.443-.503.516.028.03.018.037-.022.015-.088-.05-.532.267-.506.361.01.037-.012.048-.05.025-.088-.055-.348.127-.283.198.027.03.015.035-.028.01-.107-.06-.296.022-.244.107.024.038.013.051-.023.029-.067-.042-.968.245-.92.292.014.015-.069.03-.185.036l-.787.038c-.375.02-.563.006-.537-.037.025-.04-.007-.048-.084-.018-.069.026-.106.03-.084.007.023-.023-.086-.16-.243-.304s-.322-.351-.366-.46c-.045-.107-.105-.181-.134-.163-.029.018-.036-.032-.015-.111.02-.079.01-.126-.023-.106-.034.02-.06-.16-.06-.415 0-.248.019-.44.042-.425.023.014.078-.061.122-.168.044-.106.136-.244.205-.306.069-.063.109-.14.089-.173-.02-.032-.012-.055.018-.05.141.025.224-.013.181-.082-.028-.045-.018-.059.023-.033.082.05.294-.016.255-.08-.015-.024.038-.047.116-.051.332-.02.97-.176.936-.23-.02-.033.01-.04.069-.019.062.024.252-.057.468-.2.328-.218.395-.3.37-.455-.004-.028.028-.043.071-.034.129.028.382-.675.384-1.065 0-.194-.024-.337-.055-.317-.031.019-.042-.044-.023-.14.022-.118.009-.158-.042-.126-.049.03-.061.009-.036-.057.067-.175-.457-.87-.592-.787-.037.023-.046.008-.021-.033.054-.088-.326-.295-.748-.41-.31-.082-.963-.032-.9.07.02.034-.007.043-.06.023-.053-.02-.182.007-.286.06-.282.147-.721.516-.7.588.01.035-.012.046-.048.023-.037-.022-.164.011-.284.074-.15.079-.386.116-.76.12-.298.005-.53-.014-.513-.04.016-.025-.029-.065-.1-.087-.243-.078-.488-.325-.635-.643-.081-.175-.16-.307-.174-.293-.015.015-.026-.162-.026-.393 0-.232.011-.409.026-.394.014.014.093-.115.174-.288.08-.173.225-.385.32-.473.095-.087.154-.189.13-.226-.022-.037-.01-.048.026-.025.082.05.525-.27.5-.362-.01-.037.01-.05.046-.028.082.051.485-.191.422-.254-.026-.026.009-.026.077 0 .094.036.112.026.07-.04-.032-.053-.027-.072.012-.047.036.022.272-.03.525-.118a4.783 4.783 0 0 1 2.228-.236c.614.078.67.075.94-.052.157-.074.404-.156.547-.182.419-.076.478-.134.817-.812a13.76 13.76 0 0 0 1.276-4.128c.126-.894.111-2.718-.029-3.627a13.778 13.778 0 0 0-1.246-3.955c-.371-.742-.365-.736-.594-.567-.105.077-.174.167-.155.198.02.032.011.052-.019.046-.109-.025-.285.09-.243.158.024.04.011.05-.029.026-.04-.025-.15.023-.246.106-.142.122-.177.214-.187.491-.007.188-.03.331-.052.318-.062-.037-.274.956-.222 1.041.03.047.02.061-.022.035-.086-.053-.18.316-.11.43.032.053.02.06-.039.025-.065-.04-.077-.018-.05.089.021.079.016.13-.01.113-.071-.044-.288.68-.231.77.03.05.017.058-.04.023-.065-.04-.078-.017-.05.09.02.078.016.13-.01.113-.072-.044-.222.414-.166.504.028.046.018.059-.025.032-.087-.053-.175.19-.108.3.028.045.019.059-.023.033-.082-.05-.234.337-.171.439.023.038.012.05-.024.028-.081-.05-.434.739-.374.836.026.042.009.047-.046.013-.064-.04-.076-.023-.044.06.03.077.019.098-.033.066-.053-.032-.062-.009-.03.078.027.068.027.103 0 .076-.067-.067-.697 1.078-.644 1.172.024.041.02.053-.01.026-.076-.068-.384.398-.326.492.03.046.017.057-.03.028-.07-.043-.107.04-.082.181.005.03-.021.036-.059.013-.062-.038-.098.05-.074.186.005.03-.021.036-.059.013-.06-.038-.096.048-.075.181.004.028-.03.043-.076.034-.045-.01-.079.034-.074.097.005.062-.015.107-.045.1-.084-.023-.396.428-.35.503.023.037.01.046-.031.021-.086-.052-.231.182-.16.26.025.028.011.032-.032.006-.092-.053-.3.215-.24.31.022.037.01.047-.029.023-.082-.05-.431.383-.363.451.026.026.017.039-.02.028-.076-.023-1.798 1.675-1.774 1.75.009.028-.021.043-.067.033-.047-.009-.08.047-.078.13.002.08-.02.13-.05.112-.03-.018-.054.008-.054.06 0 .05-.146.379-.325.73-.178.35-.305.658-.282.684.024.026.006.026-.04 0-.076-.044-.115.035-.09.18.006.03-.016.04-.047.02-.068-.042-.35.321-.374.48-.009.06-.048.11-.087.11-.102 0-.352.337-.296.4.026.028.016.034-.024.011-.068-.038-.934.777-.972.916-.01.036-.035.06-.056.053-.061-.02-.987.757-.954.801.016.023.011.027-.012.011-.07-.051-.297.1-.254.169.022.035.016.06-.014.055-.136-.024-.225.012-.187.074.023.037.018.064-.013.058-.135-.023-.224.012-.186.075.023.037.017.063-.013.058-.141-.024-.224.013-.18.083.029.047.017.059-.03.03-.082-.051-.366.113-.304.175.02.02-.014.032-.076.027-.062-.005-.12.035-.129.09-.073.45-.28 1.062-.54 1.59-.26.53-.401.72-.912 1.227-.802.797-1.472 1.181-2.57 1.475-.58.154-1.925.154-2.505 0-1.097-.294-1.768-.678-2.57-1.475-.51-.507-.651-.696-.912-1.227-.252-.513-.473-1.161-.531-1.557-.015-.1-.456-.364-.53-.318-.036.022-.043.005-.017-.037.043-.07-.04-.107-.181-.083-.03.005-.036-.021-.013-.058.039-.063-.05-.098-.186-.075-.03.005-.036-.02-.013-.058.039-.062-.05-.098-.186-.074-.03.005-.036-.021-.013-.059.038-.062-.05-.098-.186-.074-.03.005-.037-.02-.015-.055.049-.08-.191-.218-.264-.152-.03.026-.032.011-.007-.032.045-.08-.202-.263-.312-.232-.03.008-.037-.012-.015-.047.049-.08-.325-.35-.396-.287-.03.027-.035.016-.012-.023.05-.09-1.037-1.18-1.107-1.109-.028.029-.043.022-.032-.014.03-.1-.213-.436-.283-.393-.033.02-.053.013-.043-.017.03-.093-.288-.556-.354-.515-.034.021-.058.014-.052-.016.023-.136-.013-.225-.075-.186-.037.023-.063.017-.058-.013.022-.129-.01-.226-.065-.192-.033.02-.057 0-.054-.046.003-.045-.104-.312-.24-.592-.134-.28-.245-.544-.245-.585 0-.04-.022-.06-.05-.044-.027.017-.051-.07-.054-.193-.005-.229-.185-.5-.315-.474-.04.007-.075-.03-.078-.085-.004-.055-.045-.092-.091-.082-.047.01-.07-.007-.05-.039.035-.056-.506-.63-.582-.616-.022.004-.033-.002-.024-.014.047-.059-.57-.704-.637-.666-.042.024-.055.02-.028-.009.068-.075-.21-.443-.296-.39-.04.025-.052.014-.027-.027.024-.039-.027-.155-.113-.259a17.17 17.17 0 0 1-.523-.7c-.201-.281-.39-.49-.418-.464-.03.026-.035.015-.013-.024.053-.093-.311-.641-.383-.576-.03.027-.034.013-.007-.033.057-.1-.115-.368-.193-.298-.03.027-.035.015-.01-.026.052-.094-.578-1.239-.645-1.172-.027.027-.027-.008 0-.076.033-.087.024-.11-.03-.078-.051.032-.062.01-.032-.066.032-.083.02-.1-.045-.06-.054.034-.072.029-.045-.013.06-.097-.293-.886-.374-.836-.037.023-.047.01-.024-.028.063-.102-.089-.49-.172-.439-.038.024-.05.013-.027-.025.055-.089-.15-.692-.221-.649-.03.019-.037-.03-.017-.11.026-.097.013-.128-.038-.096-.046.029-.064.013-.046-.04.045-.126-.393-1.394-.46-1.332-.032.029-.036.014-.01-.032.06-.104-.017-.494-.089-.45-.028.018-.036-.046-.018-.141.025-.131.012-.16-.053-.12-.056.034-.07.026-.04-.023.07-.112-.027-.55-.11-.498-.04.025-.049.01-.02-.037.072-.117-.026-.614-.11-.561-.044.026-.052.012-.021-.038.06-.097-.158-.28-.282-.237-.048.017-.068.001-.046-.035.037-.06-.054-.095-.188-.072-.03.005-.038-.018-.017-.051.038-.062-.147-.173-.249-.15-.03.007-.037-.016-.017-.049.05-.08-.251-.275-.34-.219-.038.024-.192.29-.343.591-.913 1.821-1.36 3.73-1.363 5.824-.002 1.669.252 3.133.799 4.596.272.73.83 1.878.965 1.985.049.038.206.092.35.117.143.026.392.11.553.185.273.129.333.133.933.06.675-.08 1.709-.076 1.58.007-.044.028-.005.05.09.05.091.002.372.076.625.165.252.089.488.143.524.121.04-.025.045-.006.012.047-.04.066-.023.076.07.04.07-.026.104-.026.078 0-.063.063.34.305.422.254.035-.021.056-.009.046.028-.025.092.417.412.5.362.036-.023.048-.011.025.025-.023.037.036.139.131.226.095.088.24.3.32.473.081.173.16.302.174.288.014-.015.026.162.026.394 0 .23-.012.408-.026.393-.015-.014-.093.118-.174.293-.148.318-.392.565-.636.643-.07.022-.115.062-.1.087.017.026-.214.044-.512.04-.374-.003-.61-.041-.76-.12-.12-.063-.248-.096-.284-.073-.036.022-.058.012-.048-.023.021-.073-.418-.441-.7-.588-.104-.054-.233-.081-.286-.06-.054.02-.08.01-.06-.023.063-.103-.59-.153-.9-.07-.422.114-.802.322-.748.41.025.04.016.055-.02.032-.136-.084-.66.612-.593.787.025.066.013.087-.036.057-.051-.032-.065.008-.042.127.018.096.008.158-.024.139-.03-.02-.055.123-.054.317.002.39.255 1.093.383 1.066.044-.01.076.006.071.033-.024.155.043.237.371.455.215.143.406.224.468.2.058-.022.089-.014.069.019-.033.054.604.21.935.23.079.004.131.027.117.05-.04.065.173.131.254.08.042-.025.051-.011.024.034-.043.07.04.107.18.083.03-.005.039.017.019.05-.02.032.02.11.088.172.07.062.161.2.206.306.044.107.099.182.122.168.023-.015.042.177.042.425 0 .254-.027.436-.06.415-.034-.02-.044.027-.023.106.02.079.014.129-.015.11-.03-.017-.09.057-.134.165-.045.108-.21.315-.366.459-.157.144-.267.281-.244.304.023.022-.015.02-.084-.007-.07-.028-.109-.022-.087.013.049.081-.561.093-.978.02zm17.947-22.42c.67-.165 1.652-.617 2.216-1.02.921-.658 1.809-1.789 2.228-2.84.347-.867.428-1.318.428-2.379 0-.77-.028-1.07-.141-1.505-.302-1.153-.828-2.096-1.635-2.932a5.995 5.995 0 0 0-1.912-1.368c-.939-.445-1.615-.59-2.74-.59-1.126 0-1.802.145-2.74.59-.808.382-1.322.754-1.94 1.4a6.546 6.546 0 0 0-1.636 2.988c-.156.63-.156 2.205 0 2.835a6.546 6.546 0 0 0 1.636 2.986c1.007 1.055 2.126 1.656 3.615 1.94.643.124 1.9.073 2.621-.105zm-2.247-3.88c-.696-.226-1.36-.9-1.568-1.595-.098-.324-.131-1.062-.057-1.256.03-.08.139-.105.448-.107.867-.003 1.523-.576 1.629-1.422l.041-.335.47.004c.373.003.547.042.842.186.468.23.925.688 1.16 1.166.16.328.181.445.181 1.034 0 .593-.02.703-.187 1.044-.238.484-.672.92-1.152 1.154-.305.15-.483.187-.945.203-.364.012-.675-.015-.862-.076zm4.838-25.205c0-.01-.157-.167-.348-.349l-.349-.329.33.349c.306.323.367.378.367.329zM18.461 50.545c.048-.02.105-.017.127.005.022.022-.017.038-.087.035-.077-.003-.093-.019-.04-.04zm30.99 0c.047-.02.104-.017.126.005.022.022-.017.038-.087.035-.077-.003-.093-.019-.04-.04z" fill="#a8aba6"/><path d="M17.721 57.32a5.009 5.009 0 0 1-3.688-2.978c-.275-.66-.43-1.586-.373-2.237.04-.475.032-.527-.132-.787-.224-.355-.335-.67-.395-1.127-.033-.255-.133-.503-.331-.828-1.173-1.918-1.902-3.917-2.27-6.218-.17-1.07-.17-3.947 0-5.017.51-3.192 1.75-5.904 3.756-8.208.246-.283.458-.607.541-.83.391-1.038 1.08-1.922 1.945-2.495l.392-.259.223-.895c1.643-6.584 6.906-14.303 14.977-21.965.865-.821 1.602-1.503 1.638-1.516.18-.061 2.256 1.773 4.112 3.635 3.476 3.485 6.48 7.3 8.764 11.13.81 1.358 2.174 4.098 2.67 5.364a32.497 32.497 0 0 1 1.147 3.57l.177.717.489.367c.81.61 1.225 1.143 1.65 2.121.129.296.36.662.572.905 2.135 2.45 3.363 5.094 3.885 8.36.17 1.069.17 3.947 0 5.016-.372 2.329-1.066 4.22-2.306 6.284-.219.364-.341.656-.389.93a3.299 3.299 0 0 1-.274.79c-.195.374-.202.416-.16.928.173 2.071-1.1 4.133-3.053 4.945-.664.277-1.639.44-2.017.339-.606-.163-1.134-.898-1.135-1.58-.002-.81.495-1.26 1.65-1.502.811-.169 1.316-.585 1.565-1.291.424-1.204-.524-2.498-1.822-2.489-.501.004-.816.122-1.29.484-.548.417-.749.496-1.265.495-.708 0-1.086-.23-1.355-.822-.27-.596-.102-1.364.401-1.834.696-.65 1.614-1.09 2.625-1.261.566-.096.741-.1 1.334-.027.622.076.704.073.929-.035.136-.065.456-.166.711-.224l.465-.107.343-.694c1.33-2.692 1.697-5.903 1.01-8.844-.29-1.236-1.177-3.446-1.422-3.54-.126-.048-1.159.758-1.159.905 0 .235-.475 2.007-.765 2.854-1.063 3.103-2.651 5.675-4.878 7.897-.857.856-.981 1.008-1.118 1.373-.582 1.558-2.535 3.659-4.477 4.816-.474.283-.512.334-.642.878-.16.668-.623 1.505-1.134 2.052-1.065 1.141-2.345 1.697-3.907 1.697-1.554 0-2.843-.557-3.893-1.681-.619-.663-1.033-1.477-1.244-2.442-.028-.129-.171-.258-.54-.488-.86-.536-1.561-1.09-2.342-1.853-1.159-1.131-1.89-2.185-2.204-3.175-.143-.452-.196-.526-.922-1.276-2.623-2.714-4.339-5.847-5.317-9.715a22.15 22.15 0 0 0-.276-1.037c-.01-.007-.152-.097-.316-.199a6.019 6.019 0 0 1-.53-.374c-.127-.103-.28-.188-.342-.188-.242 0-1.126 2.14-1.443 3.496a13.442 13.442 0 0 0-.008 5.985c.205.876.637 2.09 1.018 2.861l.344.697.43.105c.237.057.544.158.682.224.23.11.31.112.965.034.623-.074.796-.07 1.363.025 1.009.17 1.927.612 2.622 1.261.503.47.671 1.238.401 1.834-.269.593-.646.822-1.355.822-.516 0-.717-.078-1.264-.495-.475-.362-.79-.48-1.29-.484-1.299-.009-2.247 1.285-1.823 2.489.249.706.754 1.122 1.566 1.292 1.154.24 1.65.692 1.65 1.5-.002.836-.762 1.67-1.493 1.639a8.544 8.544 0 0 1-.653-.1zM35.856 34.93c.67-.165 1.652-.617 2.216-1.02.921-.658 1.809-1.789 2.228-2.84.347-.867.428-1.318.428-2.379 0-.77-.028-1.07-.141-1.505-.302-1.153-.828-2.096-1.635-2.932a5.995 5.995 0 0 0-1.912-1.368c-.939-.445-1.615-.59-2.74-.59-1.126 0-1.802.145-2.74.59-.808.382-1.322.754-1.94 1.4a6.546 6.546 0 0 0-1.636 2.988c-.156.63-.156 2.205 0 2.835a6.546 6.546 0 0 0 1.636 2.986c1.007 1.055 2.126 1.656 3.615 1.94.643.124 1.9.073 2.621-.105zm-2.247-3.88c-.696-.226-1.36-.9-1.568-1.595-.098-.324-.131-1.062-.057-1.256.03-.08.139-.105.448-.107.867-.003 1.523-.576 1.629-1.422l.041-.335.47.004c.373.003.547.042.842.186.468.23.925.688 1.16 1.166.16.328.181.445.181 1.034 0 .593-.02.703-.187 1.044-.238.484-.672.92-1.152 1.154-.305.15-.483.187-.945.203-.364.012-.675-.015-.862-.076z" fill="#61ab68"/><path d="M17.721 57.253a4.856 4.856 0 0 1-3.557-2.762c-.327-.721-.425-1.198-.43-2.109-.006-.777-.018-.848-.185-1.128-.187-.313-.384-.964-.384-1.27 0-.098-.025-.189-.056-.201-.08-.032-.471-.662-.858-1.384-.812-1.514-1.417-3.362-1.719-5.254-.17-1.07-.17-3.947 0-5.017.389-2.434 1.208-4.596 2.47-6.518.433-.66 1.104-1.518 1.513-1.935.143-.145.308-.424.407-.688.35-.93.975-1.73 1.756-2.25.248-.165.48-.337.514-.383.034-.046.116-.323.182-.615.376-1.676 1.198-3.863 2.228-5.93 2.174-4.36 5.361-8.66 10.036-13.538 1.176-1.227 4.297-4.252 4.389-4.254.19-.004 2.435 1.994 3.989 3.55C44.38 11.937 48.977 19.2 50.557 25.382c.137.534.267.998.29 1.03.023.034.237.198.475.366.741.523 1.285 1.214 1.656 2.103.104.249.306.57.466.74 2.08 2.203 3.497 5.195 4.026 8.506.17 1.07.17 3.948 0 5.017-.299 1.871-.932 3.81-1.716 5.256-.297.547-.855 1.474-.92 1.526-.022.018-.076.212-.119.431-.043.22-.16.563-.26.763-.169.34-.182.426-.186 1.228-.003.603-.04.991-.121 1.29-.532 1.952-2.002 3.293-3.972 3.626-.493.083-.682.09-.902.03-.84-.226-1.345-1.409-.921-2.157.176-.31.61-.596 1.076-.705.84-.198 1.036-.274 1.348-.521.48-.38.71-.875.71-1.53 0-.39-.035-.567-.16-.82a1.988 1.988 0 0 0-1.798-1.128c-.501.002-.814.12-1.29.483-.546.415-.75.495-1.265.497-.645.002-.993-.19-1.244-.686-.235-.463-.243-.904-.024-1.365.368-.78 1.605-1.51 2.938-1.736.553-.093.75-.098 1.309-.033.634.075.673.072 1.063-.083a3.96 3.96 0 0 1 .714-.206l.31-.046.365-.743a13.162 13.162 0 0 0 1.368-5.88c0-1.563-.22-2.86-.742-4.379-.276-.802-.856-2.059-1.009-2.186-.07-.058-.208.014-.628.33-.298.226-.553.47-.572.55-.51 2.15-.923 3.43-1.557 4.83a19.7 19.7 0 0 1-4.19 6.031c-.763.759-.919.948-1.012 1.231-.46 1.402-2.173 3.329-4.063 4.571-.361.238-.717.474-.791.526a.43.43 0 0 0-.15.284c-.055.691-.603 1.783-1.231 2.457-1.05 1.124-2.34 1.68-3.893 1.68-1.554 0-2.843-.556-3.893-1.68-.629-.673-1.176-1.766-1.232-2.457-.013-.163-.119-.258-.747-.668a12.53 12.53 0 0 1-2.393-1.971c-.995-1.027-1.659-2.04-1.928-2.944-.105-.35-.2-.483-.787-1.095-1.196-1.249-1.91-2.144-2.687-3.372-1.38-2.178-2.26-4.366-2.946-7.316-.028-.118-.197-.275-.556-.514-.284-.19-.59-.397-.679-.46-.09-.064-.14-.079-.112-.033.028.045.022.083-.013.083-.1 0-.711 1.31-.995 2.136-.518 1.506-.738 2.807-.738 4.367 0 2.064.457 4.026 1.369 5.88.366.745.367.746.642.79.152.025.46.118.687.208.399.157.43.16 1.096.082.589-.068.778-.064 1.336.03 1.332.226 2.569.956 2.938 1.736.218.461.21.902-.025 1.365-.251.497-.6.689-1.244.686-.516-.002-.72-.082-1.264-.497-.477-.364-.79-.48-1.29-.483a1.988 1.988 0 0 0-1.8 1.128c-.124.253-.158.43-.158.82 0 .656.23 1.151.709 1.53.313.247.508.323 1.348.52.465.11.9.396 1.076.707.416.734-.077 1.924-.892 2.15-.307.085-.382.083-1.036-.036zm17.315-22.125c.987-.123 1.698-.362 2.592-.87.593-.337 1.56-1.223 1.979-1.814.911-1.285 1.348-2.94 1.167-4.43-.192-1.587-.826-2.864-1.971-3.974-.844-.817-1.742-1.319-2.911-1.627-.565-.149-.801-.175-1.592-.175s-1.028.026-1.592.175c-1.17.308-2.067.81-2.911 1.627-1.146 1.11-1.78 2.387-1.972 3.975-.18 1.488.256 3.144 1.167 4.43.42.59 1.386 1.476 1.98 1.813 1.341.762 2.666 1.046 4.064.87z" fill="#888960"/><path d="M17.721 57.253a4.856 4.856 0 0 1-3.557-2.762c-.327-.721-.425-1.198-.43-2.109-.006-.778-.017-.848-.186-1.13-.236-.395-.4-1.048-.408-1.624-.006-.534.178-.996.593-1.48.448-.523 1.23-.926 1.83-.943.322-.01 1.203.204 1.521.368.183.095.29.098.918.026.613-.07.8-.066 1.359.029 1.33.224 2.567.955 2.936 1.735.218.461.21.902-.025 1.365-.251.496-.6.688-1.244.686-.516-.002-.72-.082-1.264-.498-.477-.363-.79-.48-1.29-.482a1.988 1.988 0 0 0-1.8 1.128c-.124.253-.158.43-.158.82 0 .655.23 1.15.709 1.53.313.247.508.323 1.348.52.465.11.9.395 1.076.706.416.735-.077 1.924-.892 2.15-.307.086-.382.083-1.036-.035zm31.452.012c-.789-.29-1.223-1.415-.82-2.127.176-.31.61-.596 1.076-.705.84-.198 1.036-.274 1.348-.521.48-.38.71-.875.71-1.53 0-.39-.035-.567-.16-.82a1.988 1.988 0 0 0-1.798-1.128c-.501.002-.814.12-1.29.482-.546.416-.75.496-1.265.498-.645.002-.993-.19-1.244-.686-.235-.463-.242-.904-.024-1.365.368-.78 1.605-1.51 2.937-1.736.554-.093.75-.098 1.32-.032.624.073.692.069.972-.055.376-.166 1.142-.344 1.441-.335.492.015 1.178.321 1.622.725.42.381.822 1.163.846 1.642.015.315-.198 1.162-.39 1.55-.168.338-.18.426-.185 1.227-.005 1-.104 1.452-.493 2.256-.744 1.541-2.195 2.53-3.982 2.716a1.416 1.416 0 0 1-.621-.056zm-16.658-3.656c-1.104-.18-2.48-.643-3.303-1.112a24.536 24.536 0 0 1-2.378-1.622c-.646-.523-1.747-1.662-2.136-2.209-.415-.584-.812-1.343-.956-1.825-.105-.35-.2-.483-.787-1.095-1.196-1.249-1.91-2.144-2.687-3.372-1.238-1.954-2.131-4.06-2.724-6.417-.145-.576-.276-1.06-.291-1.075a12.658 12.658 0 0 0-.482-.331l-.71-.476c-.538-.364-1.133-1.36-1.37-2.291-.17-.675-.186-1.895-.027-2.196.058-.11.177-.39.265-.622.345-.912.975-1.715 1.749-2.229.248-.165.48-.337.514-.383.034-.046.116-.323.182-.615.376-1.676 1.198-3.863 2.228-5.93 2.174-4.36 5.361-8.66 10.036-13.538 1.176-1.227 4.297-4.252 4.389-4.254.19-.004 2.435 1.994 3.989 3.55C44.38 11.937 48.977 19.2 50.557 25.382c.137.534.267.998.29 1.03.023.034.237.198.475.366.774.547 1.237 1.149 1.73 2.254.267.596.28.654.309 1.432.027.733.013.87-.146 1.427a5.863 5.863 0 0 1-.4 1.015c-.245.44-.743 1.094-.832 1.094-.13 0-1.13.818-1.161.95-.51 2.15-.923 3.43-1.557 4.83a19.7 19.7 0 0 1-4.19 6.031c-.763.759-.919.948-1.012 1.231-.46 1.403-2.182 3.339-4.063 4.57-.361.235-.752.506-.868.601-.49.4-2.119 1.046-3.288 1.302-.823.18-2.505.227-3.33.093zm2.521-18.48c.987-.124 1.698-.363 2.592-.871.593-.337 1.56-1.223 1.979-1.814.911-1.285 1.348-2.94 1.167-4.43-.192-1.587-.826-2.864-1.971-3.974-.844-.817-1.742-1.319-2.911-1.627-.565-.149-.801-.175-1.592-.175s-1.028.026-1.592.175c-1.17.308-2.067.81-2.911 1.627-1.146 1.11-1.78 2.387-1.972 3.975-.18 1.488.256 3.144 1.167 4.43.42.59 1.386 1.476 1.98 1.813 1.341.762 2.666 1.046 4.064.87z" fill="#3ea03e"/><path d="M33.006 53.597c-.55-.06-1.401-.244-1.989-.431-.744-.238-2.025-.799-2.22-.972a6.49 6.49 0 0 0-.602-.408c-1.575-.972-3.135-2.518-3.938-3.9-.29-.5-.566-1.209-.531-1.364.016-.073.183.03.587.361.876.72 2.062 1.48 3.152 2.017 4.168 2.055 8.925 2.069 13.084.037 1.267-.619 2.142-1.18 3.467-2.22.156-.124.04.298-.23.836-.524 1.044-1.624 2.346-2.749 3.254-.605.489-1.86 1.33-2.416 1.62-1.746.912-3.879 1.356-5.615 1.17zm-19.41-2.37c-.265-.452-.375-.87-.387-1.467-.01-.48.01-.577.206-.973.405-.824 1.223-1.404 2.105-1.494.388-.04 1.104.113 1.511.32.28.143.28.144.115.21-.578.228-1.15.534-1.513.809-.736.556-1.374 1.484-1.644 2.39-.066.219-.14.423-.167.454-.026.031-.128-.081-.226-.25zm40.45-.115c-.128-.495-.546-1.29-.927-1.757-.523-.642-1.327-1.196-2.163-1.488l-.332-.116.365-.169c.44-.204 1.175-.34 1.53-.283 1.064.17 1.972 1.012 2.194 2.037.095.436.097.384-.03.974-.096.445-.406 1.143-.507 1.143-.024 0-.083-.153-.13-.341zm-20.538-7.527c-.09-.09-.104-.376-.104-2.119 0-1.743.014-2.028.104-2.119.075-.075.235-.104.569-.104.78 0 .72-.186.72 2.223 0 2.41.06 2.223-.72 2.223-.334 0-.494-.03-.569-.104zm-1.664-.306l-.514-.13-.249-.062v-1.882c0-1.654.013-1.886.105-1.922.154-.059 1.042-.047 1.14.015.066.042.08.495.067 2.04-.02 2.241.024 2.085-.549 1.94zm3.99-.027c-.023-.057-.041-.952-.041-1.988 0-2.178-.056-2.021.72-2.021.707 0 .673-.099.673 1.95 0 1.294-.021 1.767-.083 1.843-.045.056-.315.152-.599.212-.63.134-.621.133-.671.004zm-6.443-1.29c-.255-.142-.501-.31-.548-.373-.06-.081-.084-.413-.084-1.126 0-1.212.004-1.22.63-1.22.681 0 .63-.123.63 1.533 0 1.121-.018 1.452-.082 1.448-.046-.003-.292-.12-.546-.262zm8.724-1.186c0-1.656-.05-1.533.631-1.533.63 0 .63 0 .63 1.286 0 .761-.024 1.109-.083 1.183-.081.104-.965.517-1.106.517-.05 0-.072-.455-.072-1.453zm-4.57-4.528c-3.055-.32-5.686-2.556-6.477-5.506a7.483 7.483 0 0 1 1.95-7.298 7.483 7.483 0 0 1 7.299-1.95c2.522.676 4.605 2.758 5.28 5.28a7.52 7.52 0 0 1-1.948 7.3 7.637 7.637 0 0 1-3.45 1.981c-.459.117-1.72.281-1.99.26-.06-.005-.358-.036-.663-.067zM35.926 35c2.278-.594 4.096-2.396 4.724-4.682.122-.447.145-.704.145-1.626 0-1.305-.104-1.784-.615-2.82-.698-1.414-1.727-2.424-3.15-3.09-.943-.44-1.51-.555-2.73-.555-1.219 0-1.786.116-2.728.556-1.423.665-2.453 1.675-3.15 3.089-.511 1.036-.616 1.515-.616 2.82 0 1.261.103 1.761.555 2.707.355.743.678 1.217 1.213 1.782a6.682 6.682 0 0 0 3.532 1.92c.696.135 2.11.084 2.82-.1zm-19.21-.54c-.8-.532-1.238-1.012-1.586-1.737-.4-.833-.532-1.468-.489-2.37.019-.388.066-.764.106-.835.04-.071.166-.359.279-.64.236-.585.717-1.302 1.114-1.66.357-.323.998-.747 1.05-.695.022.022-.007.348-.064.723-.331 2.143-.31 4.438.06 6.702.152.93.155.927-.47.511zm34.163-.11l.141-1.08c.262-1.984.165-5.072-.206-6.55-.052-.208.059-.193.427.06.777.536 1.266 1.16 1.721 2.198.274.624.3.73.332 1.38.058 1.133-.266 2.233-.91 3.085-.235.312-1.342 1.221-1.486 1.221-.033 0-.041-.142-.019-.315z" fill="#1e802a"/><path d="M33.537 41.466v-2.09h1.128v4.18h-1.128zm.962 0v-1.924h-.797l-.017 1.857c-.01 1.021-.002 1.896.016 1.944.023.062.146.081.415.067l.383-.02zm-2.655 1.714l-.547-.123-.15-.034V39.376H32.343v1.92c0 1.056-.022 1.932-.05 1.946-.027.015-.229-.014-.448-.062zm.3-1.88V39.51h-.8l.018 1.705.018 1.705.332.079c.182.043.354.082.381.086.028.004.05-.798.05-1.784zm3.818 1.94c-.02-.02-.037-.899-.037-1.95v-1.914h1.129V43.023l-.183.041c-.1.023-.337.08-.527.127s-.361.069-.382.048zm.711-.29l.25-.063-.018-1.673-.017-1.672h-.797l-.017 1.69c-.01.93-.004 1.727.012 1.77.03.079.077.074.587-.053zm-7.317-1.11l-.431-.243-.019-1.11-.018-1.111h1.065v1.36c0 1.048-.019 1.359-.083 1.354-.045-.004-.277-.116-.514-.25zm.45-1.154l-.019-1.144h-.73l-.018.946-.018.946.313.198c.172.11.353.2.402.2.07 0 .084-.23.07-1.146zm8.376.057v-1.367h1.061V41.689l-.376.172c-.207.095-.446.19-.531.211l-.154.039zm.732.921l.2-.103-.018-1.01-.019-1.01h-.729l-.019 1.093c-.01.6-.004 1.13.014 1.177.035.091.185.053.57-.147zm-5.78-5.536c-1.02-.186-2.167-.648-2.99-1.201-.583-.393-1.517-1.317-1.92-1.901a8.53 8.53 0 0 1-1.105-2.38c-.168-.607-.183-.756-.184-1.854-.001-1.271.066-1.715.389-2.573a7.415 7.415 0 0 1 1.743-2.717 7.59 7.59 0 0 1 3.379-1.957c.611-.17.749-.184 1.887-.184 1.14 0 1.275.013 1.891.185.774.215 1.811.699 2.418 1.128.58.41 1.398 1.235 1.798 1.814a8.53 8.53 0 0 1 1.108 2.38c.169.613.183.755.183 1.89 0 1.136-.014 1.278-.183 1.892a7.487 7.487 0 0 1-2.023 3.427c-.684.666-1.203 1.029-2.034 1.423-1.03.488-1.683.633-2.959.66-.602.013-1.232-.002-1.399-.032zm2.439-1.037a6.484 6.484 0 0 0 3.247-1.703c1.446-1.388 2.083-2.986 1.998-5.01-.074-1.756-.705-3.14-1.998-4.382-1.25-1.2-2.767-1.807-4.52-1.807-1.754 0-3.27.606-4.521 1.807-1.363 1.31-2.017 2.84-2.015 4.719.002 1.823.674 3.386 2.004 4.662a6.559 6.559 0 0 0 3.216 1.71c.618.133 1.956.135 2.589.004z" fill="#226e28"/></g></svg>