<svg xmlns="http://www.w3.org/2000/svg" xmlns:xlink="http://www.w3.org/1999/xlink" height="48" viewBox="0 0 47.999999 47.999999" width="48"><defs><linearGradient id="a"><stop offset="0" stop-color="#f598f8"/><stop offset="1" stop-color="#398bef"/></linearGradient><linearGradient xlink:href="#a" id="d" x1="23.375" y1="41.2" x2="23.375" y2="13.95" gradientUnits="userSpaceOnUse"/><linearGradient xlink:href="#a" id="c" gradientUnits="userSpaceOnUse" x1="23.375" y1="41.2" x2="23.375" y2="13.95" gradientTransform="translate(-4.599 3.45)"/><filter id="b" x="-.021" width="1.042" y="-.028" height="1.055" color-interpolation-filters="sRGB"><feGaussianBlur stdDeviation=".423"/></filter></defs><g transform="translate(1.22 -3.068) scale(.9492)" color="#000"><rect style="isolation:auto;mix-blend-mode:normal;marker:none" width="44" height="30" x="-3.249" y="17.533" rx="0" ry="1.515" transform="rotate(-9.77)" overflow="visible" fill-opacity=".157" stroke-width=".518" stroke-opacity=".157" filter="url(#b)" enable-background="accumulate"/><rect transform="rotate(-9.77)" ry="1.515" rx="0" y="15.878" x="-2.964" height="30" width="44" style="isolation:auto;mix-blend-mode:normal;marker:none" overflow="visible" fill="#fff" stroke="#000" stroke-width=".518" stroke-opacity=".157" enable-background="accumulate"/><rect transform="rotate(-9.09)" style="isolation:auto;mix-blend-mode:normal;marker:none" width="42" height="28" x="-1.599" y="16.65" ry="0" overflow="visible" fill="url(#c)" stroke-width=".918" enable-background="accumulate"/><rect style="isolation:auto;mix-blend-mode:normal;marker:none" width="44" height="30" x="2" y="12.2" rx="0" ry="1.515" overflow="visible" fill="#fff" stroke="#000" stroke-width=".518" stroke-opacity=".157" enable-background="accumulate"/><rect ry="0" y="13.2" x="3" height="28" width="42" style="isolation:auto;mix-blend-mode:normal;marker:none" overflow="visible" fill="url(#d)" stroke-width=".918" enable-background="accumulate"/><path d="M31.731 25.155L45 34.825V41.2l-36.452-.066z" style="isolation:auto;mix-blend-mode:normal;marker:none" overflow="visible" fill="#fff" stroke-width=".918" enable-background="accumulate"/><path style="isolation:auto;mix-blend-mode:normal;marker:none" d="M15.617 28.59l11.948 11.122L45 41.2H3z" overflow="visible" fill="#fff" fill-opacity=".34" stroke-width=".918" enable-background="accumulate"/><path style="isolation:auto;mix-blend-mode:normal;marker:none" d="M19.866 13.994l.235.669-.712-.019.697.132-.372.607.46-.537.342.625-.234-.668.712.018-.698-.132.373-.607-.461.537zm7.963.469l.235.667-.712-.017.695.13-.37.609.46-.54.343.626-.235-.668.712.018-.698-.13.373-.609-.463.54zm7.821.936l.235.669-.712-.019.698.132-.373.607.463-.537.34.626-.235-.67.712.017-.695-.13.37-.606-.461.537zm4.31.14l.236.669-.712-.019.695.132-.372.607.463-.537.34.626-.235-.67.712.02-.696-.132.37-.607-.46.537zm-32.036.52l.666 1.898-2.02-.05 1.977.37-1.056 1.727 1.311-1.526.967 1.775-.668-1.899 2.022.051-1.977-.37L10.2 16.31l-1.31 1.527zm9.928 1.4l.236.669-.712-.017.696.13-.373.607.463-.537.34.625-.235-.668.712.018-.695-.132.37-.607-.46.537zm8.93 1.228l-4.788 4.523c-1.537.928-.427 1.46.222.138l4.632-4.59zm.307 2.404L22.3 25.613c-1.381 1.379-.315 1.084.223.138l4.631-4.59z" display="block" overflow="visible" fill="#fff" fill-opacity=".335" stroke-width=".593" enable-background="accumulate"/></g></svg>