<svg xmlns="http://www.w3.org/2000/svg" height="24" viewBox="0 0 24 24" width="24"><title>Template icons dark</title><defs><linearGradient id="a"><stop offset="0" stop-color="#36549f"/><stop offset="1" stop-color="#1b2b5e"/></linearGradient><linearGradient id="b"><stop offset="0" stop-color="#915faf"/><stop offset="1" stop-color="#492f75"/></linearGradient></defs><g transform="translate(56 56)"><rect transform="rotate(-45)" ry="0" y="-70.71" x="-8.485" height="16.97" width="16.97" fill="#fafafa" fill-opacity=".156" stroke-width="6.465"/><path d="M-44-56l12 12-12 12v-7.606l2.828-.738.728-2.191-2.667-1.627 2.141-.898-.485-2.273-2.545-.374z" fill="#36549f" fill-opacity=".646" stroke-width="6.465"/><path d="M-32-44l-12-12-12 12 .912.917L-44-54.171l11.085 11.085z" style="line-height:normal;text-indent:0;text-align:start;text-decoration-line:none;text-decoration-style:solid;text-decoration-color:#000;text-transform:none;isolation:auto;mix-blend-mode:normal" color="#000" font-weight="400" font-family="sans-serif" white-space="normal" overflow="visible" fill="#fff" fill-opacity=".114" stroke-width="1.293" stroke-linecap="square"/><path d="M-43.875-56l-5.548 5.548v12.904L-43.875-32l5.548-5.548v-12.904z" fill="#fff" fill-opacity=".092" stroke-width="5.088"/><g style="line-height:0%;-inkscape-font-specification:Verdana"><path d="M-40.422-43.703q.443.224.73.563.286.34.286.876 0 .532-.342.976-.342.443-.961.772-.693.365-1.636.542-.934.172-2.052.172-1.146 0-2.256-.156-1.109-.152-1.82-.334v-1.09h.138q.786.292 1.849.485t2.052.193q.582 0 1.238-.11.657-.11 1.063-.323.426-.23.63-.506.212-.276.212-.699 0-.417-.24-.688-.232-.277-.648-.433-.416-.162-1.007-.22-.592-.062-1.276-.062h-.832v-.866h.647q1.405 0 2.237-.328.841-.334.841-.97 0-.282-.212-.49-.213-.215-.592-.35-.397-.136-.85-.188-.453-.052-1.026-.052-.879 0-1.868.177-.989.177-1.867.5h-.092v-1.09q.656-.182 1.747-.333 1.1-.157 2.126-.157 1.007 0 1.775.105.767.104 1.386.334.666.25 1.008.605.342.354.342.829 0 .647-.814 1.132-.804.48-1.904.605v.073q.444.042 1.017.177.573.13.97.329z" style="line-height:13.43226147;-inkscape-font-specification:Verdana" font-size="14.22" font-weight="400" font-family="Verdana" letter-spacing="0" word-spacing="0" fill="#fff" stroke-width=".27"/></g></g></svg>