<svg xmlns:osb="http://www.openswatchbook.org/uri/2009/osb" xmlns="http://www.w3.org/2000/svg" xmlns:xlink="http://www.w3.org/1999/xlink" height="24" viewBox="0 0 23.999998 23.999998" width="24"><title>Template icons dark</title><defs><linearGradient id="f" osb:paint="solid"><stop offset="0"/></linearGradient><linearGradient id="c" osb:paint="solid"><stop offset="0" stop-opacity=".018"/></linearGradient><linearGradient id="e"><stop offset="0" stop-opacity=".128"/><stop offset="1" stop-opacity=".392"/></linearGradient><linearGradient id="a"><stop offset="0" stop-color="#fb7d3c"/><stop offset="1" stop-color="#fd9f5f"/></linearGradient><linearGradient id="b" osb:paint="solid"><stop offset="0" stop-color="#f2501d"/></linearGradient><linearGradient id="d"><stop offset="0" stop-opacity="0"/><stop offset=".25" stop-opacity=".091"/><stop offset="1" stop-opacity="0"/></linearGradient><linearGradient id="j" osb:paint="solid"><stop offset="0" stop-color="#fff"/></linearGradient><linearGradient id="g"><stop offset="0" stop-color="#404552" stop-opacity="0"/><stop offset="1" stop-color="#404552" stop-opacity=".839"/></linearGradient><linearGradient id="h"><stop offset="0" stop-color="#404552" stop-opacity=".036"/><stop offset="1" stop-color="#404552" stop-opacity=".979"/></linearGradient><linearGradient id="i"><stop offset="0" stop-color="#828282"/><stop offset=".253" stop-color="#fff"/><stop offset=".522" stop-color="#717171"/><stop offset=".785" stop-color="#717171"/><stop offset="1" stop-color="#4c4c4c"/></linearGradient><linearGradient xlink:href="#f" id="m" gradientUnits="userSpaceOnUse" gradientTransform="matrix(.35556 0 0 .17778 46.519 -36.067)" x1="-153.424" y1="-84" x2="-129.424" y2="-84"/><linearGradient xlink:href="#f" id="n" gradientUnits="userSpaceOnUse" gradientTransform="matrix(.35556 0 0 .17778 46.519 -28.067)" x1="-153.424" y1="-84" x2="-129.424" y2="-84"/><linearGradient xlink:href="#f" id="o" gradientUnits="userSpaceOnUse" gradientTransform="matrix(.35556 0 0 .17778 51.519 -42.067)" x1="-153.424" y1="-84" x2="-129.424" y2="-84"/><linearGradient xlink:href="#f" id="l" gradientUnits="userSpaceOnUse" gradientTransform="matrix(.66667 0 0 .66667 -22.152 -7)" x1="-153.424" y1="-84" x2="-129.424" y2="-84"/><linearGradient xlink:href="#f" id="k" gradientUnits="userSpaceOnUse" gradientTransform="matrix(.66667 0 0 .66667 -21.152 -9)" x1="-153.424" y1="-84" x2="-129.424" y2="-84"/></defs><g color="#000"><path style="isolation:auto;mix-blend-mode:normal;marker:none" d="M89-49v16h17v-16zm4 1h9v6h-8.969zm-3 0h2v2h-2zm13 0h2v2h-2zm-13 4h2v2h-2zm13 0h2v2h-2zm-9.969 4H102v6h-8.969zM90-40h2v2h-2zm13 0h2v2h-2zm-13 4h2v2h-2zm13 0h2v2h-1.937z" overflow="visible" opacity=".64" fill="url(#k)" stroke-width=".137" paint-order="fill markers stroke" transform="translate(-88 56)"/><path d="M94-55v5h4v-4h9v16h4v-17zm1 1h2v2h-2zm13 0h2v2h-1.96zm0 4h2v2h-1.96zm0 4h2v2h-2zm.04 4H110v2h-1.96z" style="isolation:auto;mix-blend-mode:normal;marker:none" overflow="visible" opacity=".64" fill="url(#l)" stroke-width=".137" paint-order="fill markers stroke" transform="translate(-88 56)"/><path style="isolation:auto;mix-blend-mode:normal;marker:none" d="M94-47h7v4h-7z" overflow="visible" opacity=".1" fill="url(#m)" stroke-width=".052" paint-order="fill markers stroke" transform="translate(-88 56)"/><path d="M94-39h7v4h-7z" style="isolation:auto;mix-blend-mode:normal;marker:none" overflow="visible" opacity=".1" fill="url(#n)" stroke-width=".052" paint-order="fill markers stroke" transform="translate(-88 56)"/><path style="isolation:auto;mix-blend-mode:normal;marker:none" d="M99-53h7v3h-7z" overflow="visible" opacity=".1" fill="url(#o)" stroke-width=".052" paint-order="fill markers stroke" transform="translate(-88 56)"/></g></svg>