<svg xmlns:osb="http://www.openswatchbook.org/uri/2009/osb" xmlns="http://www.w3.org/2000/svg" xmlns:xlink="http://www.w3.org/1999/xlink" height="24" viewBox="0 0 23.999998 23.999998" width="24"><title>Template icons dark</title><defs><linearGradient id="f" osb:paint="solid"><stop offset="0"/></linearGradient><linearGradient id="c" osb:paint="solid"><stop offset="0" stop-opacity=".018"/></linearGradient><linearGradient id="e"><stop offset="0" stop-opacity=".128"/><stop offset="1" stop-opacity=".392"/></linearGradient><linearGradient id="a"><stop offset="0" stop-color="#fb7d3c"/><stop offset="1" stop-color="#fd9f5f"/></linearGradient><linearGradient id="b" osb:paint="solid"><stop offset="0" stop-color="#f2501d"/></linearGradient><linearGradient id="d"><stop offset="0" stop-opacity="0"/><stop offset=".25" stop-opacity=".091"/><stop offset="1" stop-opacity="0"/></linearGradient><linearGradient id="j" osb:paint="solid"><stop offset="0" stop-color="#fff"/></linearGradient><linearGradient id="g"><stop offset="0" stop-color="#404552" stop-opacity="0"/><stop offset="1" stop-color="#404552" stop-opacity=".839"/></linearGradient><linearGradient id="h"><stop offset="0" stop-color="#404552" stop-opacity=".036"/><stop offset="1" stop-color="#404552" stop-opacity=".979"/></linearGradient><linearGradient id="i"><stop offset="0" stop-color="#828282"/><stop offset=".253" stop-color="#fff"/><stop offset=".522" stop-color="#717171"/><stop offset=".785" stop-color="#717171"/><stop offset="1" stop-color="#4c4c4c"/></linearGradient><linearGradient xlink:href="#f" id="k" gradientUnits="userSpaceOnUse" gradientTransform="translate(-4.9 -11.478) scale(.60225)" x1="-153.424" y1="-84" x2="-129.424" y2="-84"/></defs><path d="M152.851-54.84a4.192 4.192 0 0 0-4.186 4.186c0 .679.166 1.318.454 1.886l-4.83 1.918a4.187 4.187 0 1 0-3.035 7.068 4.186 4.186 0 0 0 3.064-1.34l4.78 1.935a4.153 4.153 0 0 0-.433 1.84 4.192 4.192 0 0 0 4.186 4.188 4.192 4.192 0 0 0 4.187-4.187 4.192 4.192 0 0 0-4.187-4.187c-1.233 0-2.341.54-3.108 1.393l-4.765-1.925a4.188 4.188 0 0 0 .463-1.904c0-.657-.155-1.305-.452-1.89l4.793-1.958a4.171 4.171 0 0 0 3.07 1.35 4.192 4.192 0 0 0 4.186-4.187 4.192 4.192 0 0 0-4.187-4.187zm0 1.975c1.224 0 2.211.987 2.211 2.211 0 1.224-.987 2.21-2.21 2.21a2.207 2.207 0 0 1-2.211-2.21c0-1.224.987-2.21 2.21-2.21zm-11.603 6.699c1.209 0 2.198.989 2.198 2.197 0 1.21-.99 2.198-2.198 2.198a2.205 2.205 0 0 1-2.198-2.198c0-1.208.99-2.197 2.198-2.197zm11.603 6.384a2.432 2.432 0 0 1 2.436 2.436 2.432 2.432 0 0 1-2.436 2.436 2.432 2.432 0 0 1-2.435-2.436 2.432 2.432 0 0 1 2.435-2.436z" style="isolation:auto;mix-blend-mode:normal;marker:none" color="#000" overflow="visible" opacity=".64" fill="url(#k)" stroke-width=".123" paint-order="fill markers stroke" transform="translate(-136 56)"/></svg>