<svg xmlns:osb="http://www.openswatchbook.org/uri/2009/osb" xmlns="http://www.w3.org/2000/svg" xmlns:xlink="http://www.w3.org/1999/xlink" height="24" viewBox="0 0 23.999998 23.999998" width="24"><title>Template icons dark</title><defs><linearGradient id="f" osb:paint="solid"><stop offset="0"/></linearGradient><linearGradient id="c" osb:paint="solid"><stop offset="0" stop-opacity=".018"/></linearGradient><linearGradient id="e"><stop offset="0" stop-opacity=".128"/><stop offset="1" stop-opacity=".392"/></linearGradient><linearGradient id="a"><stop offset="0" stop-color="#fb7d3c"/><stop offset="1" stop-color="#fd9f5f"/></linearGradient><linearGradient id="b" osb:paint="solid"><stop offset="0" stop-color="#f2501d"/></linearGradient><linearGradient id="d"><stop offset="0" stop-opacity="0"/><stop offset=".25" stop-opacity=".091"/><stop offset="1" stop-opacity="0"/></linearGradient><linearGradient xlink:href="#f" id="k" gradientUnits="userSpaceOnUse" gradientTransform="matrix(.66667 0 0 .66667 -21.152 -8)" x1="-153.424" y1="-84" x2="-129.424" y2="-84"/><linearGradient id="j" osb:paint="solid"><stop offset="0" stop-color="#fff"/></linearGradient><linearGradient id="g"><stop offset="0" stop-color="#404552" stop-opacity="0"/><stop offset="1" stop-color="#404552" stop-opacity=".839"/></linearGradient><linearGradient id="h"><stop offset="0" stop-color="#404552" stop-opacity=".036"/><stop offset="1" stop-color="#404552" stop-opacity=".979"/></linearGradient><linearGradient id="i"><stop offset="0" stop-color="#828282"/><stop offset=".253" stop-color="#fff"/><stop offset=".522" stop-color="#717171"/><stop offset=".785" stop-color="#717171"/><stop offset="1" stop-color="#4c4c4c"/></linearGradient></defs><g color="#000" fill="url(#k)" stroke-width=".137" transform="translate(-40 56)"><path d="M62.497-45.914l.003 7.706c0 1.986-1.82 2.867-2.708 2.867-2.593 0-2.556-3.545 0-3.59.538 0 1.192-.068 1.208-.704v-3.163l-6 1.69v5.071c0 1.966-2.061 2.536-2.949 2.536-2.613 0-2.556-3.081 0-3.128.538 0 1.311-.142 1.44-.6v-6.96s.088-.36.19-.496c.093-.121.364-.253.364-.253l7.344-2.085s.625.135.833.354c.185.194.278.755.278.755zM41-55v1h20v-1zm0 4v1h20v-1zm0 4v1h8v-1zm0 5v1h8v-1zm0 4v1h8v-1z" style="isolation:auto;mix-blend-mode:normal;marker:none" overflow="visible" opacity=".64" paint-order="fill markers stroke"/></g></svg>