<svg xmlns:osb="http://www.openswatchbook.org/uri/2009/osb" xmlns="http://www.w3.org/2000/svg" xmlns:xlink="http://www.w3.org/1999/xlink" height="24" viewBox="0 0 23.999998 23.999998" width="24"><title>Template icons dark</title><defs><linearGradient id="f" osb:paint="solid"><stop offset="0"/></linearGradient><linearGradient id="c" osb:paint="solid"><stop offset="0" stop-opacity=".018"/></linearGradient><linearGradient id="e"><stop offset="0" stop-opacity=".128"/><stop offset="1" stop-opacity=".392"/></linearGradient><linearGradient id="a"><stop offset="0" stop-color="#fb7d3c"/><stop offset="1" stop-color="#fd9f5f"/></linearGradient><linearGradient id="b" osb:paint="solid"><stop offset="0" stop-color="#f2501d"/></linearGradient><linearGradient id="d"><stop offset="0" stop-opacity="0"/><stop offset=".25" stop-opacity=".091"/><stop offset="1" stop-opacity="0"/></linearGradient><linearGradient xlink:href="#f" id="m" gradientUnits="userSpaceOnUse" gradientTransform="matrix(.66667 0 0 .66667 -21.152 -8)" x1="-153.424" y1="-84" x2="-129.424" y2="-84"/><linearGradient id="j" osb:paint="solid"><stop offset="0" stop-color="#fff"/></linearGradient><linearGradient id="g"><stop offset="0" stop-color="#404552" stop-opacity="0"/><stop offset="1" stop-color="#404552" stop-opacity=".839"/></linearGradient><linearGradient id="h"><stop offset="0" stop-color="#404552" stop-opacity=".036"/><stop offset="1" stop-color="#404552" stop-opacity=".979"/></linearGradient><linearGradient id="i"><stop offset="0" stop-color="#828282"/><stop offset=".253" stop-color="#fff"/><stop offset=".522" stop-color="#717171"/><stop offset=".785" stop-color="#717171"/><stop offset="1" stop-color="#4c4c4c"/></linearGradient><linearGradient xlink:href="#e" id="k" gradientUnits="userSpaceOnUse" gradientTransform="matrix(1.7363 0 0 1.7363 -24.434 8.093)" x1="30.199" y1="-24.819" x2="30.199" y2="-35.186"/><linearGradient xlink:href="#f" id="l" gradientUnits="userSpaceOnUse" gradientTransform="translate(20.271 40)" x1="-153.424" y1="-84" x2="-129.424" y2="-84"/></defs><g color="#000"><path d="M39.54-33.636c0-3.8-6.449-5.379-9.021-6.068 0 0 .106-2.13.355-2.912.248-.782.284-1.67.39-1.918.107-.249 1.363-1.385 1.434-2.45-.017-.637-.143-.787-.457-.787v-3.303c0-1.783-2.6-3.34-4.305-3.34-1.707 0-4.306 1.557-4.306 3.34v3.303c-.314 0-.44.15-.456.786.07 1.066 1.326 2.202 1.433 2.45.106.25.142 1.137.39 1.919.25.781.356 2.912.356 2.912-2.573.69-9.022 2.268-9.022 6.068z" style="isolation:auto;mix-blend-mode:normal;marker:none" overflow="visible" fill="url(#k)" stroke-width=".278" stroke-linecap="round" stroke-linejoin="round" stroke-opacity=".201" transform="translate(-16 56)"/><path d="M28.003-54.41v20.775H39.54c0-3.8-6.448-5.38-9.02-6.07 0 0 .105-2.13.354-2.912s.283-1.668.39-1.916c.106-.249 1.361-1.387 1.432-2.452-.017-.636-.14-.786-.454-.786v-3.304c0-1.761-2.533-3.296-4.24-3.334z" style="isolation:auto;mix-blend-mode:normal;marker:none" overflow="visible" opacity=".1" fill="url(#l)" stroke-width=".205" paint-order="fill markers stroke" transform="translate(-16 56)"/><path d="M27.936-54.42c-.947 0-1.972.387-2.798 1.01-.826.623-1.474 1.512-1.474 2.555v2.994c-.092.054-.206.042-.264.134-.149.24-.17.489-.178.824a.42.42 0 0 0 .003.038c.044.67.42 1.247.764 1.708.173.23.343.43.472.583.064.076.12.142.155.187.036.046.053.09.03.035-.014-.03.055.287.108.633.052.346.122.77.255 1.187.085.269.19 1.102.246 1.807.042.537.052.801.061 1.002-1.276.338-3.316.842-5.2 1.68-1.001.444-1.934.97-2.642 1.616-.709.647-1.204 1.447-1.204 2.376a.42.42 0 0 0 .421.422H39.18a.42.42 0 0 0 .422-.422c0-.839-.503-1.566-1.202-2.185-.698-.62-1.62-1.159-2.613-1.632-1.866-.89-3.89-1.49-5.185-1.846.009-.198.019-.47.061-1.01.055-.706.158-1.54.243-1.808.133-.417.206-.841.258-1.187.053-.346.122-.663.109-.633-.024.054-.007.01.029-.035.036-.045.09-.111.155-.187.13-.153.3-.353.472-.583.345-.46.72-1.038.764-1.708a.42.42 0 0 0 0-.038c-.008-.335-.026-.583-.175-.824-.058-.093-.174-.08-.267-.134v-2.994c0-1.046-.66-1.936-1.497-2.558-.837-.622-1.872-1.008-2.818-1.008zm0 .84c.706 0 1.62.322 2.317.84.697.519 1.157 1.203 1.157 1.885v3.199a.42.42 0 0 0 .399.422c.003.018.03.113.04.325-.028.36-.29.843-.594 1.248-.153.204-.31.39-.44.545-.065.077-.125.143-.175.208-.05.064-.093.11-.141.222-.116.272-.116.507-.167.841-.05.334-.117.718-.226 1.058-.155.488-.224 1.272-.28 1.995-.057.723-.083 1.35-.083 1.35a.42.42 0 0 0 .31.425c1.232.33 3.47 1.005 5.37 1.91.951.454 1.818.966 2.42 1.5.441.391.55.764.672 1.137H17.333c.117-.462.248-.917.706-1.336.602-.55 1.467-1.047 2.42-1.47 1.906-.847 4.15-1.404 5.405-1.74a.42.42 0 0 0 .31-.425s-.025-.628-.081-1.351c-.057-.723-.126-1.507-.281-1.995a7.102 7.102 0 0 1-.226-1.058c-.05-.333-.052-.567-.167-.838v-.003c-.048-.112-.093-.158-.144-.222-.05-.065-.107-.131-.172-.208-.13-.154-.29-.34-.443-.545-.303-.405-.563-.887-.592-1.248.01-.214.038-.311.041-.328a.42.42 0 0 0 .399-.42v-3.199c0-.685.45-1.366 1.137-1.883.685-.518 1.584-.841 2.29-.841z" style="line-height:normal;font-variant-ligatures:normal;font-variant-position:normal;font-variant-caps:normal;font-variant-numeric:normal;font-variant-alternates:normal;font-feature-settings:normal;text-indent:0;text-align:start;text-decoration-line:none;text-decoration-style:solid;text-decoration-color:#000;text-transform:none;text-orientation:mixed;shape-padding:0;isolation:auto;mix-blend-mode:normal;marker:none" font-weight="400" font-family="sans-serif" white-space="normal" overflow="visible" opacity=".5" fill="url(#m)" stroke-width=".137" paint-order="fill markers stroke" transform="translate(-16 56)"/></g></svg>