<svg xmlns="http://www.w3.org/2000/svg" xmlns:xlink="http://www.w3.org/1999/xlink" height="96" viewBox="0 0 96 96" width="96" enable-background="new"><title>Template icons dark</title><defs><filter id="f" x="-.439" width="1.878" y="-.17" height="1.339" color-interpolation-filters="sRGB"><feGaussianBlur stdDeviation=".235"/></filter><filter id="e" x="-.439" width="1.878" y="-.17" height="1.339" color-interpolation-filters="sRGB"><feGaussianBlur stdDeviation=".235"/></filter><linearGradient xlink:href="#a" id="d" gradientUnits="userSpaceOnUse" x1="14.054" y1="22.893" x2="-10.695" y2="47.641" gradientTransform="scale(2.58559) rotate(-45 64.132 -25.06)"/><linearGradient id="a"><stop offset="0" stop-color="#36549f"/><stop offset="1" stop-color="#1b2b5e"/></linearGradient><linearGradient xlink:href="#b" id="c" x1="13.789" y1="22.097" x2="-11.402" y2="47.288" gradientUnits="userSpaceOnUse" gradientTransform="matrix(2.58559 0 0 2.58559 -2.752 136.23)"/><linearGradient id="b"><stop offset="0" stop-color="#915faf"/><stop offset="1" stop-color="#492f75"/></linearGradient></defs><g transform="translate(-112 -112)"><rect transform="rotate(-45)" ry="0" y="192.337" x="-33.945" height="67.872" width="67.872" fill="url(#c)" stroke-width="25.856"/><path d="M159.992 112.013l47.993 47.993-47.993 47.992v-30.42l11.312-2.949 2.91-8.766-10.666-6.504 8.564-3.595-1.939-9.09-10.18-1.493z" fill="url(#d)" stroke-width="25.856"/><path d="M207.985 160.006l-47.993-47.993L112 160.006l3.646 3.666 44.346-44.346 44.336 44.336z" style="line-height:normal;text-indent:0;text-align:start;text-decoration-line:none;text-decoration-style:solid;text-decoration-color:#000;text-transform:none;isolation:auto;mix-blend-mode:normal" color="#000" font-weight="400" font-family="sans-serif" white-space="normal" overflow="visible" fill="#fff" fill-opacity=".114" stroke-width="5.171" stroke-linecap="square" enable-background="accumulate"/><path d="M160.491 112.011l-22.19 22.19v51.61L160.492 208l22.19-22.19V134.2z" fill="#fff" fill-opacity=".092" stroke-width="20.349"/><g style="line-height:0%;-inkscape-font-specification:Verdana"><path d="M130.928 214.59q1.333 1.195 2.194 3t.861 4.666q0 2.832-1.027 5.193-1.028 2.36-2.888 4.11-2.083 1.944-4.916 2.888-2.805.916-6.165.916-3.444 0-6.776-.833-3.333-.805-5.471-1.777v-5.804h.416q2.36 1.555 5.555 2.583 3.193 1.027 6.165 1.027 1.75 0 3.721-.583 1.972-.583 3.194-1.722 1.277-1.222 1.888-2.694.639-1.472.639-3.721 0-2.222-.722-3.666-.694-1.472-1.944-2.305-1.25-.86-3.027-1.166-1.777-.333-3.833-.333h-2.499v-4.61h1.944q4.221 0 6.72-1.75 2.528-1.777 2.528-5.165 0-1.5-.639-2.611-.639-1.139-1.777-1.86-1.194-.723-2.555-1-1.361-.278-3.083-.278-2.638 0-5.61.944-2.971.944-5.61 2.666h-.277v-5.804q1.972-.972 5.249-1.777 3.304-.834 6.387-.834 3.027 0 5.332.556 2.305.555 4.166 1.777 2 1.333 3.027 3.222 1.027 1.888 1.027 4.415 0 3.444-2.443 6.027-2.417 2.555-5.721 3.221v.389q1.333.222 3.054.944 1.722.694 2.916 1.75z" style="line-height:13.43226147;-inkscape-font-specification:Verdana" font-size="56.875" transform="scale(1.33127 .75116)" font-weight="400" font-family="Verdana" letter-spacing="0" word-spacing="0" fill="#fff" stroke="#6c409a" stroke-width="1.08"/></g><g transform="matrix(1.52069 0 0 .91328 74.868 101.764)" opacity=".99" fill="#fff" fill-opacity=".439" stroke-width=".531" stroke-linecap="square" stroke-opacity=".616"><ellipse transform="matrix(.37034 0 0 .93213 35.102 1.504)" ry="1.659" rx=".641" cy="19.942" cx="55.927" filter="url(#e)"/><ellipse cx="55.927" cy="19.942" rx=".641" ry="1.659" transform="matrix(0 .28572 -1.76513 0 91.014 4.106)" filter="url(#e)"/></g><g transform="matrix(.91034 .77609 -.49005 .57483 133.989 93.172)" opacity=".99" fill="#fff" fill-opacity=".439" stroke-width=".531" stroke-linecap="square" stroke-opacity=".616"><ellipse cx="55.927" cy="19.942" rx=".641" ry="1.659" transform="matrix(.37034 0 0 .93213 35.102 1.504)" filter="url(#f)"/><ellipse transform="matrix(0 .28572 -1.76513 0 91.014 4.106)" ry="1.659" rx=".641" cy="19.942" cx="55.927" filter="url(#f)"/></g><g style="line-height:0%" font-weight="400" font-family="sans-serif" letter-spacing="0" word-spacing="0" fill="#ddd" fill-opacity=".562" stroke-width=".056" stroke-opacity=".265" font-size="3.461"><path d="M176.22 198.947l.42.42q-.392.2-.759.47-.367.27-.708.612-.52.52-.68.883-.156.359.047.562.155.155.43.059.273-.1.914-.58l.273-.206q.845-.642 1.342-.767.499-.13.83.2.378.378.127 1.069-.246.686-1.065 1.505-.342.342-.757.67-.41.327-.903.652l-.46-.46q.515-.258.956-.569.438-.312.806-.68.493-.493.652-.865.157-.375-.039-.57-.181-.182-.471-.085-.287.093-1.025.652l-.279.206q-.736.562-1.203.671-.47.107-.784-.207-.382-.382-.165-1.015.217-.633.998-1.414.387-.387.764-.693.378-.305.739-.52zM177.404 196.065l.77.769 1.437-1.438.346.346-1.438 1.438 1.47 1.47q.332.331.567.285.238-.05.674-.486l.717-.716.373.372-.717.717q-.808.808-1.306.924-.501.114-1.009-.394l-1.47-1.47-.513.511-.345-.345.512-.513-.77-.769zM183.41 192.429q-.16.074-.32.195-.159.114-.326.281-.591.592-.663 1.157-.07.56.389 1.02l1.427 1.426-.702.702-2.709-2.71.702-.7.42.42q-.026-.467.208-.938.232-.474.737-.978.072-.072.166-.152.092-.083.21-.177zM188.444 189.05l.218.217-3.21 3.209q.506.414 1.135.269.63-.151 1.324-.846.402-.402.715-.84.316-.442.562-.94l.42.421q-.273.477-.614.925-.342.448-.747.853-1.017 1.017-1.99 1.235-.969.215-1.612-.429-.665-.665-.493-1.616.173-.957 1.129-1.912.857-.858 1.707-1.001.852-.15 1.456.454zm-.828.567q-.373-.358-.906-.261-.528.093-1.044.61-.584.583-.727 1.147-.138.559.19.994zM192.174 183.873q-.038-.562.183-1.069.222-.506.715-1 .664-.663 1.322-.726.655-.066 1.202.481l1.635 1.635-.702.702-1.62-1.62q-.39-.39-.795-.363-.405.028-.848.472-.543.542-.628 1.087-.085.544.312.941l1.53 1.531-.701.702-1.62-1.62q-.392-.392-.795-.362-.405.027-.856.478-.535.535-.618 1.082-.085.545.31.94l1.53 1.53-.701.702-2.709-2.709.702-.702.42.421q-.01-.488.206-.94.215-.453.674-.912.463-.462.935-.635.476-.176.917-.046zM195.918 179.09l.698-.699 2.708 2.71-.697.697zm-1.055-1.055l.698-.698.564.563-.698.698zM200.03 175.6q-.56.562-.607 1.169-.048.604.438 1.09.487.486 1.09.445.604-.049 1.17-.614.557-.557.602-1.164.046-.607-.438-1.09-.481-.482-1.088-.436-.609.043-1.167.6zm-.377-.377q.91-.91 1.807-1.052.897-.143 1.565.525.665.665.525 1.564-.142.897-1.053 1.808-.914.914-1.81 1.056-.896.136-1.561-.529-.668-.667-.53-1.56.143-.898 1.057-1.812z" style="line-height:10"/></g></g></svg>