<svg xmlns="http://www.w3.org/2000/svg" xmlns:xlink="http://www.w3.org/1999/xlink" height="64" viewBox="0 0 64 64" width="64" enable-background="new"><title>Template icons dark</title><defs><filter id="f" x="-.439" width="1.878" y="-.17" height="1.339" color-interpolation-filters="sRGB"><feGaussianBlur stdDeviation=".235"/></filter><filter id="e" x="-.439" width="1.878" y="-.17" height="1.339" color-interpolation-filters="sRGB"><feGaussianBlur stdDeviation=".235"/></filter><linearGradient id="a"><stop offset="0" stop-color="#36549f"/><stop offset="1" stop-color="#1b2b5e"/></linearGradient><linearGradient id="b"><stop offset="0" stop-color="#915faf"/><stop offset="1" stop-color="#492f75"/></linearGradient><linearGradient xlink:href="#a" id="d" gradientUnits="userSpaceOnUse" x1="14.054" y1="22.893" x2="-10.695" y2="47.641" gradientTransform="matrix(1.219 -1.219 1.219 1.219 36.254 38.842)"/><linearGradient xlink:href="#b" id="c" x1="13.789" y1="22.097" x2="-11.402" y2="47.288" gradientUnits="userSpaceOnUse" gradientTransform="matrix(1.72391 0 0 1.72391 -1.83 53.1)"/></defs><g transform="translate(-48 -48)"><rect transform="rotate(-45)" ry="0" y="90.51" x="-22.628" height="45.253" width="45.253" fill="url(#c)" stroke-width="17.239"/><path d="M79.999 48.002L111.997 80 79.999 112V91.716l7.542-1.966 1.939-5.844-7.111-4.337 5.71-2.397-1.293-6.06L80 70.116z" fill="url(#d)" stroke-width="17.239"/><path d="M111.997 80L79.999 48.002 48 80l2.431 2.445L80 52.878l29.56 29.56z" style="line-height:normal;text-indent:0;text-align:start;text-decoration-line:none;text-decoration-style:solid;text-decoration-color:#000;text-transform:none;isolation:auto;mix-blend-mode:normal" color="#000" font-weight="400" font-family="sans-serif" white-space="normal" overflow="visible" fill="#fff" fill-opacity=".114" stroke-width="3.448" stroke-linecap="square" enable-background="accumulate"/><path d="M80.331 48L65.536 62.795v34.41L80.331 112l14.795-14.795v-34.41z" fill="#fff" fill-opacity=".092" stroke-width="13.567"/><g style="line-height:0%;-inkscape-font-specification:Verdana"><path d="M67.258 107.555q.889.797 1.463 2 .574 1.204.574 3.11 0 1.89-.685 3.463-.685 1.574-1.926 2.74-1.389 1.297-3.277 1.926-1.87.611-4.11.611-2.297 0-4.519-.555-2.222-.537-3.647-1.185v-3.87h.277q1.574 1.037 3.703 1.722 2.13.685 4.111.685 1.167 0 2.481-.389 1.315-.389 2.13-1.148.851-.814 1.259-1.796.426-.981.426-2.48 0-1.482-.482-2.445-.463-.981-1.296-1.537-.833-.574-2.018-.778-1.185-.222-2.555-.222H57.5v-3.073h1.296q2.815 0 4.481-1.167 1.685-1.185 1.685-3.444 0-1-.426-1.74-.426-.76-1.185-1.241-.796-.481-1.703-.667-.908-.185-2.056-.185-1.759 0-3.74.63-1.981.63-3.74 1.777h-.185v-3.87q1.314-.648 3.5-1.185 2.203-.555 4.258-.555 2.018 0 3.555.37 1.537.37 2.777 1.185 1.334.89 2.019 2.148.685 1.26.685 2.944 0 2.296-1.63 4.018-1.61 1.704-3.814 2.148v.26q.889.147 2.037.629 1.148.463 1.944 1.166z" style="line-height:13.43226147;-inkscape-font-specification:Verdana" font-size="37.921" transform="scale(1.33127 .75116)" font-weight="400" font-family="Verdana" letter-spacing="0" word-spacing="0" fill="#fff" stroke="#6c409a" stroke-width=".72"/></g><g transform="matrix(1.0139 0 0 .60892 23.243 41.168)" opacity=".99" fill="#fff" fill-opacity=".439" stroke-width=".531" stroke-linecap="square" stroke-opacity=".616"><ellipse transform="matrix(.37034 0 0 .93213 35.102 1.504)" ry="1.659" rx=".641" cy="19.942" cx="55.927" filter="url(#e)"/><ellipse cx="55.927" cy="19.942" rx=".641" ry="1.659" transform="matrix(0 .28572 -1.76513 0 91.014 4.106)" filter="url(#e)"/></g><g transform="matrix(.60696 .51745 -.32674 .38326 62.66 35.44)" opacity=".99" fill="#fff" fill-opacity=".439" stroke-width=".531" stroke-linecap="square" stroke-opacity=".616"><ellipse cx="55.927" cy="19.942" rx=".641" ry="1.659" transform="matrix(.37034 0 0 .93213 35.102 1.504)" filter="url(#f)"/><ellipse transform="matrix(0 .28572 -1.76513 0 91.014 4.106)" ry="1.659" rx=".641" cy="19.942" cx="55.927" filter="url(#f)"/></g><g style="line-height:0%" font-weight="400" font-family="sans-serif" letter-spacing="0" word-spacing="0" fill="#ddd" fill-opacity=".562" stroke-width=".056" stroke-opacity=".265" font-size="3.461"><path d="M90.818 105.964l.28.28q-.261.133-.506.313t-.472.408q-.347.347-.453.589-.105.24.03.375.104.103.288.039.182-.066.61-.387l.181-.137q.563-.428.895-.51.332-.088.553.133.252.251.085.712-.164.457-.71 1.004-.228.227-.505.446-.273.218-.602.435l-.307-.307q.344-.172.638-.379.292-.208.537-.454.329-.329.435-.577.105-.25-.026-.38-.121-.12-.314-.056-.191.062-.684.434l-.186.138q-.49.375-.802.447-.313.072-.522-.138-.255-.255-.11-.677.144-.422.665-.943.258-.258.51-.461.251-.203.492-.347zM91.608 104.042l.512.513.959-.959.23.231-.958.959.98.98q.221.221.378.19.159-.033.45-.324l.478-.478.248.249-.478.478q-.539.538-.87.616-.335.076-.673-.263l-.98-.98-.342.34-.23-.23.34-.341-.512-.513zM95.612 101.618q-.107.05-.214.13-.105.077-.217.188-.394.394-.442.771-.047.373.26.68l.95.95-.467.469L93.676 103l.468-.468.28.28q-.018-.31.139-.625.154-.316.49-.652.049-.048.112-.102.061-.055.14-.117zM98.968 99.365l.146.145-2.14 2.14q.337.275.756.179.42-.101.883-.564.268-.268.476-.56.211-.295.375-.627l.281.28q-.183.319-.41.617-.228.299-.498.57-.678.677-1.327.823-.646.143-1.075-.286-.443-.444-.329-1.078.116-.638.753-1.275.572-.572 1.139-.667.567-.1.97.303zm-.552.378q-.249-.238-.604-.174-.352.063-.696.407-.39.389-.484.765-.093.372.127.663zM101.455 95.913q-.025-.374.123-.712.147-.338.476-.667.443-.442.881-.484.437-.044.802.32l1.09 1.09-.468.469-1.08-1.08q-.26-.26-.53-.242-.27.018-.566.314-.362.362-.418.725-.057.363.207.628l1.021 1.02-.468.468-1.08-1.08q-.261-.261-.53-.241-.27.018-.57.319-.357.357-.412.721-.057.363.206.626l1.02 1.021-.467.468-1.806-1.806.467-.468.281.28q-.007-.325.137-.626.143-.302.45-.608.308-.309.623-.424.317-.117.611-.03zM103.951 92.724l.466-.465 1.806 1.806-.466.465zm-.703-.703l.466-.465.375.375-.465.466zM106.693 90.398q-.374.374-.404.779-.032.403.292.727.324.324.726.296.403-.032.78-.409.371-.371.402-.776.03-.405-.292-.727-.321-.321-.726-.29-.406.028-.778.4zm-.251-.252q.607-.607 1.205-.701.598-.095 1.043.35.443.443.35 1.043-.095.598-.702 1.205-.61.61-1.207.704-.597.091-1.04-.352-.446-.445-.354-1.041.095-.598.705-1.208z" style="line-height:10"/></g></g></svg>