<svg xmlns="http://www.w3.org/2000/svg" xmlns:xlink="http://www.w3.org/1999/xlink" height="32" viewBox="0 0 32 32" width="32" enable-background="new"><title>Template icons dark</title><defs><filter id="f" x="-.439" width="1.878" y="-.17" height="1.339" color-interpolation-filters="sRGB"><feGaussianBlur stdDeviation=".235"/></filter><filter id="e" x="-.439" width="1.878" y="-.17" height="1.339" color-interpolation-filters="sRGB"><feGaussianBlur stdDeviation=".235"/></filter><linearGradient id="a"><stop offset="0" stop-color="#36549f"/><stop offset="1" stop-color="#1b2b5e"/></linearGradient><linearGradient id="b"><stop offset="0" stop-color="#915faf"/><stop offset="1" stop-color="#492f75"/></linearGradient><linearGradient xlink:href="#a" id="d" gradientUnits="userSpaceOnUse" x1="14.054" y1="22.893" x2="-10.695" y2="47.641" gradientTransform="rotate(-45 -63.092 27.426) scale(.86197)"/><linearGradient xlink:href="#b" id="c" x1="13.789" y1="22.097" x2="-11.402" y2="47.288" gradientUnits="userSpaceOnUse" gradientTransform="matrix(.86197 0 0 .86197 -.914 -52.646)"/></defs><g transform="translate(32 32)"><rect transform="rotate(-45)" ry="0" y="-33.941" x="-11.313" height="22.627" width="22.627" fill="url(#c)" stroke-width="8.62"/><path d="M-16-32L0-16-16 0v-10.142l3.771-.983.97-2.922-3.556-2.168 2.855-1.199-.646-3.03-3.394-.498z" fill="url(#d)" stroke-width="8.62"/><path d="M0-16l-16-16-16 16 1.216 1.222L-16-29.56l14.78 14.78z" style="line-height:normal;text-indent:0;text-align:start;text-decoration-line:none;text-decoration-style:solid;text-decoration-color:#000;text-transform:none;isolation:auto;mix-blend-mode:normal" color="#000" font-weight="400" font-family="sans-serif" white-space="normal" overflow="visible" fill="#fff" fill-opacity=".114" stroke-width="1.724" stroke-linecap="square" enable-background="accumulate"/><path d="M-15.834-32l-7.397 7.397v17.206L-15.834 0l7.398-7.397v-17.206z" fill="#fff" fill-opacity=".092" stroke-width="6.784"/><g style="line-height:0%;-inkscape-font-specification:Verdana"><path d="M-8.435-20.774q.444.398.731 1t.287 1.556q0 .944-.343 1.73-.342.788-.962 1.371-.695.648-1.64.963-.934.306-2.054.306-1.148 0-2.26-.278-1.11-.269-1.823-.593v-1.935h.139q.786.519 1.851.861 1.065.343 2.056.343.583 0 1.24-.195.657-.194 1.065-.574.426-.407.63-.898.212-.49.212-1.24 0-.74-.24-1.222-.232-.491-.648-.769-.417-.287-1.01-.389-.592-.11-1.277-.11h-.834v-1.538h.649q1.407 0 2.24-.583.843-.592.843-1.722 0-.5-.213-.87-.213-.38-.593-.62-.398-.241-.852-.334-.453-.092-1.027-.092-.88 0-1.87.315-.991.314-1.87.888h-.093v-1.935q.657-.324 1.75-.592 1.101-.278 2.129-.278 1.01 0 1.778.185t1.388.593q.667.444 1.01 1.074.342.63.342 1.472 0 1.148-.815 2.009-.805.852-1.907 1.074v.13q.444.073 1.018.314.574.232.973.583z" style="line-height:13.43226147;-inkscape-font-specification:Verdana" font-size="18.961" transform="scale(1.33127 .75116)" font-weight="400" font-family="Verdana" letter-spacing="0" word-spacing="0" fill="#fff" stroke="#6c409a" stroke-width=".36"/></g><g transform="matrix(.50696 0 0 .30446 -44.378 -35.416)" opacity=".99" fill="#fff" fill-opacity=".439" stroke-width=".531" stroke-linecap="square" stroke-opacity=".616"><ellipse transform="matrix(.37034 0 0 .93213 35.102 1.504)" ry="1.659" rx=".641" cy="19.942" cx="55.927" filter="url(#e)"/><ellipse cx="55.927" cy="19.942" rx=".641" ry="1.659" transform="matrix(0 .28572 -1.76513 0 91.014 4.106)" filter="url(#e)"/></g><g transform="matrix(.30348 .25873 -.16337 .19163 -24.669 -38.28)" opacity=".99" fill="#fff" fill-opacity=".439" stroke-width=".531" stroke-linecap="square" stroke-opacity=".616"><ellipse cx="55.927" cy="19.942" rx=".641" ry="1.659" transform="matrix(.37034 0 0 .93213 35.102 1.504)" filter="url(#f)"/><ellipse transform="matrix(0 .28572 -1.76513 0 91.014 4.106)" ry="1.659" rx=".641" cy="19.942" cx="55.927" filter="url(#f)"/></g><g style="line-height:0%" font-weight="400" font-family="sans-serif" letter-spacing="0" word-spacing="0" fill="#ddd" fill-opacity=".562" stroke-width=".056" stroke-opacity=".265" font-size="3.461"><path d="M-10.59-3.018l.14.14q-.13.067-.253.157-.122.09-.236.204-.173.173-.227.294-.052.12.016.188.051.051.143.02.091-.034.305-.194l.09-.069q.283-.214.448-.255.167-.044.277.066.126.126.042.356-.082.23-.355.502-.114.114-.252.224-.137.109-.301.217l-.154-.153q.172-.086.32-.19.145-.104.268-.227.164-.164.217-.288.053-.125-.013-.19-.06-.06-.157-.029-.095.031-.341.218l-.093.069q-.246.187-.402.223-.156.036-.26-.069-.128-.127-.056-.338.072-.211.333-.472.129-.129.255-.23.126-.102.246-.174zM-10.195-3.979l.256.257.48-.48.115.116-.48.479.49.49q.111.11.19.095.079-.016.224-.162l.24-.239.123.124-.239.24q-.269.269-.435.307-.167.038-.336-.131l-.49-.49-.171.17-.116-.115.171-.17-.256-.257zM-8.193-5.191q-.054.025-.107.065-.053.038-.108.094-.198.197-.222.386-.023.186.13.34l.476.475-.234.234-.903-.903.234-.234.14.14q-.009-.155.07-.312.076-.158.245-.327.024-.024.055-.05.03-.028.07-.06zM-6.515-6.318l.073.073-1.07 1.07q.168.138.378.09.21-.051.441-.282.134-.134.239-.28.105-.148.187-.314l.14.14q-.09.16-.205.309-.113.149-.249.284-.339.34-.663.412-.323.071-.538-.143-.221-.222-.164-.539.058-.319.377-.637.285-.286.569-.334.284-.05.485.151zm-.276.19q-.124-.12-.302-.087-.176.03-.348.203-.195.195-.242.382-.047.187.063.332zM-5.271-8.043q-.013-.187.06-.356.075-.17.239-.334.221-.221.44-.242.219-.022.401.16l.545.545-.234.234-.54-.54q-.13-.13-.265-.12-.135.009-.283.157-.18.18-.209.362-.028.182.104.314l.51.51-.233.234-.54-.54q-.131-.13-.265-.12-.135.009-.286.159-.178.178-.206.36-.028.182.103.314l.51.51-.233.234-.903-.903.234-.234.14.14q-.003-.162.068-.313.072-.151.225-.304.154-.154.312-.212.159-.059.306-.015zM-4.023-9.638l.232-.233.903.903-.232.233zm-.352-.352l.233-.232.188.188-.233.232zM-2.652-10.801q-.187.187-.203.39-.016.2.146.363.162.162.363.148.202-.016.39-.204.186-.186.201-.389.016-.202-.146-.363-.16-.16-.362-.145-.203.014-.39.2zm-.126-.126q.303-.303.602-.35.3-.048.522.174.222.222.175.522-.047.299-.35.602-.306.305-.605.353-.298.045-.52-.177-.223-.222-.176-.52.047-.3.352-.604z" style="line-height:10"/></g></g></svg>