<svg xmlns="http://www.w3.org/2000/svg" height="16" viewBox="0 0 16 16" width="16"><title>Template icons dark</title><defs><linearGradient id="a"><stop offset="0" stop-color="#3b173b"/><stop offset="1" stop-color="#1c2d4c"/></linearGradient></defs><path d="M7.772.624l-7.54 9.83 7.562 5.293 7.561-5.293z" fill="#535363" fill-rule="evenodd"/><path d="M7.816.624l-7.562 9.83 7.562 5.293 7.561-5.293zm0 14.099l6.49-4.647-1.787-1.89-1.786.754-1.786-1.676-1.786.921-2.337-1.89-3.457 3.78z" fill="#dcdee0" fill-rule="evenodd"/><path d="M10.565 10.589c-.016.117-7.217-2.648-7.217-2.648l1.476-1.646 2.304 1.89 1.819-.921L7.816.624l7.54 9.83z" fill-opacity=".24" fill-rule="evenodd"/><path style="isolation:auto;mix-blend-mode:normal;marker:none" d="M0 9.896h.866v.866H0zM7.362 15.134h.866V16h-.866zM14.895 10.069h.866v.866h-.866zM7.403 0h.866v.866h-.866z" color="#000" display="block" overflow="visible" fill="#dedede" paint-order="fill markers stroke"/><path d="M1.542 3.487L7.887.471" fill-opacity=".215" fill-rule="evenodd" stroke="#eed3fc" stroke-width=".302"/><path style="isolation:auto;mix-blend-mode:normal;marker:none" d="M2.095 3.577a.488.488 0 0 1-.488.488.488.488 0 0 1-.489-.488.488.488 0 0 1 .489-.488.488.488 0 0 1 .488.488zM14.917 3.056a.488.488 0 0 1-.489.489.488.488 0 0 1-.488-.489.488.488 0 0 1 .488-.488.488.488 0 0 1 .489.488z" color="#000" display="block" overflow="visible" fill="none" stroke="#fefbfb" stroke-width=".175" stroke-linecap="round" paint-order="fill markers stroke"/><path d="M8.055.643l6.358 2.362" fill-opacity=".215" fill-rule="evenodd" stroke="#eed3fc" stroke-width=".292"/></svg>