<svg xmlns="http://www.w3.org/2000/svg" height="16" viewBox="0 0 16 16" width="16"><title>Template icons dark</title><defs><linearGradient id="a"><stop offset="0" stop-color="#36549f"/><stop offset="1" stop-color="#1b2b5e"/></linearGradient><linearGradient id="b"><stop offset="0" stop-color="#915faf"/><stop offset="1" stop-color="#492f75"/></linearGradient></defs><path d="M0 8l8-8 8 8-8 8z" fill="#fafafa" fill-opacity=".089" stroke-width="4.31"/><path d="M8 0l8 8-8 8v-5l2.4-.6.56-1.4L9 8l1.78-1-.203-1L8 5.582z" fill="#fff" fill-opacity=".057" stroke-width="4.31"/><path style="line-height:13.43226147;-inkscape-font-specification:Verdana" d="M10.593 8.347c.203.103.37.231.5.386.132.155.197.356.197.601 0 .244-.078.467-.234.67-.157.202-.376.453-.66.604a3.98 3.98 0 0 1-1.122.372 7.782 7.782 0 0 1-1.407.118c-.524 0-1.04-.036-1.547-.108a11.36 11.36 0 0 1-1.25-.229v-.934h.096c.359.133.782.244 1.268.333.486.088.955.132 1.407.132.267 0 .55-.025.85-.075.3-.05.543-.124.729-.222.194-.105.338-.22.431-.347a.763.763 0 0 0 .146-.48c0-.19-.055-.235-.165-.36a1.04 1.04 0 0 0-.444-.296 2.617 2.617 0 0 0-.69-.15 8.34 8.34 0 0 0-.876-.044h-.57v-.593h.443c.643 0 1.154-.076 1.535-.226.384-.152.577-.374.577-.665a.456.456 0 0 0-.146-.337c-.3-.22-.686-.23-.99-.293-.206-.024-.44-.017-.703-.017-.401 0-.828.04-1.28.121-.453.081-.88.196-1.281.344h-.064V5.81c.3-.084.7-.16 1.199-.23.503-.07.989-.107 1.458-.107.46 0 .866.024 1.217.072.35.048.668.124.951.229.304.114.535.253.691.415a.793.793 0 0 1 .235.569c0 .295-.186.554-.558.776-.368.22-.803.358-1.306.415V8c.203.02.435.06.697.122.262.06.484.134.666.225z" font-weight="400" font-size="11.366" font-family="Verdana" letter-spacing="0" word-spacing="0" fill="#fff" stroke-width=".185"/><path d="M.339 8L8 .339 15.661 8 8 15.661z" fill="none" fill-opacity=".344" stroke="#fff" stroke-width=".479" stroke-opacity=".995"/></svg>