<svg xmlns="http://www.w3.org/2000/svg" xmlns:xlink="http://www.w3.org/1999/xlink" height="16" viewBox="0 0 16 16" width="16"><title>Template icons dark</title><defs><linearGradient id="a"><stop offset="0" stop-color="#eadfec"/><stop offset="1" stop-color="#c0dde6"/></linearGradient><linearGradient id="b"><stop offset="0" stop-color="#3e4453"/><stop offset="1" stop-color="#222630"/></linearGradient><linearGradient id="c"><stop offset="0" stop-color="#abd6e5"/><stop offset="1" stop-color="#f7e2f7"/></linearGradient><linearGradient xlink:href="#a" id="f" gradientUnits="userSpaceOnUse" gradientTransform="matrix(.42312 0 0 .42312 -73.503 -74.304)" x1="17.302" y1="14.341" x2="30.113" y2="34.354"/><linearGradient xlink:href="#b" id="d" gradientUnits="userSpaceOnUse" gradientTransform="matrix(.3712 0 0 .3712 -72.907 -73.456)" x1="24.535" y1="7.996" x2="24.766" y2="38.006"/><linearGradient xlink:href="#c" id="e" gradientUnits="userSpaceOnUse" gradientTransform="matrix(.36884 0 0 .36884 -72.82 -74.001)" x1="36.062" y1="47.638" x2="13.188" y2="8.325"/></defs><g transform="translate(72 72)"><circle r="7.752" cy="-63.969" cx="-63.969" style="isolation:auto;mix-blend-mode:normal;marker:none" color="#000" overflow="visible" fill="url(#d)" stroke="url(#e)" stroke-width=".495"/><path d="M-62.188-61.38q0-.59-.448-.912-.44-.33-1.548-.566-1.1-.235-1.753-.566-.644-.33-.959-.786-.306-.455-.306-1.084 0-1.045.88-1.768.888-.724 2.264-.724 1.446 0 2.342.747.903.747.903 1.91h-1.461q0-.597-.511-1.03-.503-.432-1.273-.432-.794 0-1.242.346-.448.346-.448.904 0 .526.416.794.417.267 1.501.51 1.093.244 1.769.582.676.338.998.817.33.472.33 1.156 0 1.14-.912 1.831-.911.684-2.365.684-1.022 0-1.808-.362-.786-.361-1.234-1.006-.44-.652-.44-1.407h1.454q.04.731.582 1.164.55.424 1.446.424.825 0 1.32-.33.503-.338.503-.896z" style="line-height:10;-inkscape-font-specification:Roboto" font-weight="400" font-size="83.863" font-family="Roboto" letter-spacing="0" word-spacing="0" fill-opacity=".385" stroke-width=".782" stroke-opacity=".194"/><path style="line-height:10;-inkscape-font-specification:Roboto" d="M-62.188-62.115q0-.59-.448-.912-.44-.33-1.548-.566-1.1-.236-1.753-.566-.644-.33-.959-.786-.306-.455-.306-1.084 0-1.045.88-1.769.888-.723 2.264-.723 1.446 0 2.342.747.903.747.903 1.91h-1.461q0-.597-.511-1.03-.503-.432-1.273-.432-.794 0-1.242.346-.448.346-.448.904 0 .526.416.794.417.267 1.501.51 1.093.244 1.769.582.676.338.998.817.33.472.33 1.156 0 1.14-.912 1.83-.911.685-2.365.685-1.022 0-1.808-.362-.786-.361-1.234-1.006-.44-.652-.44-1.407h1.454q.04.731.582 1.164.55.424 1.446.424.825 0 1.32-.33.503-.338.503-.896z" font-weight="400" font-size="83.863" font-family="Roboto" letter-spacing="0" word-spacing="0" fill="url(#f)" stroke-width=".782" stroke-opacity=".194"/></g></svg>